<svg width="193" height="150" viewBox="0 0 193 150" fill="none" xmlns="http://www.w3.org/2000/svg">
<path d="M71.1497 149.852C65.044 149.429 58.1387 148.197 53.493 146.702C36.5492 141.25 23.1829 131.5 13.205 117.316C7.55499 109.284 3.07202 98.7167 1.41053 89.514C-0.34312 79.8007 -0.4524 72.0776 1.03133 62.7101C2.90079 50.9072 7.67443 39.8227 15.1036 30.034C23.6101 18.8258 34.5164 10.4815 47.2189 5.46297C57.0713 1.57047 65.3314 -0.000636064 75.9407 1.93166e-07C90.5323 0.00103667 102.914 3.40903 115.719 10.9488C117.165 11.8006 118.656 12.7431 119.032 13.0433L119.715 13.5889L117.757 15.0787C106.163 23.9005 97.6122 35.2728 92.4268 48.7672C91.9833 49.9214 91.5247 50.8658 91.4077 50.8658C91.2907 50.8658 90.6008 50.5353 89.8746 50.1313C78.9045 44.0289 65.3771 45.7738 56.192 54.476C50.9564 59.4363 47.9257 65.5926 47.3327 72.4722C46.6047 80.9181 49.621 89.0358 55.6765 94.928C58.3219 97.5022 59.9297 98.6853 62.6735 100.077C67.9882 102.773 73.3812 103.828 78.8049 103.234C82.2474 102.857 85.1458 102.007 88.6557 100.344C90.2376 99.595 91.5562 99.0117 91.586 99.0479C91.6158 99.0841 92.1818 100.46 92.8436 102.106C98.3759 115.862 107.424 127.492 119.054 135.795L119.789 136.32L117.919 137.555C109.721 142.97 99.0995 147.204 89.93 148.711C82.8989 149.867 76.7498 150.24 71.1497 149.852ZM160.442 102.941C159.471 102.819 157.733 102.497 156.581 102.226C148.897 100.423 141.92 94.7425 138.056 87.1453C134.415 79.9865 134.457 69.7583 138.156 62.5118C139.373 60.1278 141.319 57.3979 143.145 55.5124C150.482 47.9382 160.774 45.1101 171.359 47.7592C179.247 49.7332 186.368 55.7346 189.972 63.4435C193.208 70.3691 193.067 80.4101 189.638 87.1453C185.876 94.5347 178.987 100.248 171.617 102.092C167.419 103.142 164.051 103.398 160.442 102.941Z" fill="black"/>
</svg>
