<svg width="191" height="186" viewBox="0 0 191 186" fill="none" xmlns="http://www.w3.org/2000/svg">
<path d="M65.7739 185.382C65.171 185.045 64.2987 184.236 63.8354 183.586C63.0846 182.531 62.9877 182.167 62.9427 180.23C62.8982 178.308 62.806 177.955 62.1444 177.175C61.1108 175.956 49.843 164.044 29.3501 142.506C27.2742 140.324 24.3617 137.262 22.8781 135.701C21.3944 134.14 17.1231 129.678 13.3864 125.784C6.92632 119.053 6.54253 118.705 5.57756 118.699C4.13896 118.69 2.5145 117.879 1.32453 116.575C0.146546 115.285 -0.113223 114.28 0.0397567 111.606C0.132531 109.984 0.271835 109.556 0.996606 108.666C2.09899 107.313 3.44194 106.424 4.67979 106.229L5.67147 106.072L11.0052 88.5192C13.9388 78.865 19.0131 62.167 22.2815 51.4124L28.224 31.8588L27.5711 31.1679C26.3808 29.9084 25.9469 28.7061 25.9596 26.703C25.968 25.275 26.1305 24.521 26.636 23.5504C28.3661 20.229 32.6052 19.499 35.4448 22.0334L36.4855 22.9622L44.8932 21.0264C75.8768 13.8927 116.317 4.42551 116.476 4.2687C116.528 4.21658 116.863 3.62887 117.219 2.96272C119.545 -1.38959 126.29 -0.821098 127.671 3.84366C127.821 4.34813 127.951 5.53257 127.961 6.47575L127.978 8.19062L129.842 10.169C130.868 11.2571 135.124 15.7791 139.302 20.2179C143.479 24.6566 149.888 31.431 153.544 35.2719C157.2 39.1129 165.593 47.9316 172.196 54.8691C184.038 67.3115 184.215 67.4829 185.294 67.4976C189.132 67.5499 191.69 71.097 190.835 75.1819C190.312 77.6784 188.762 79.3267 186.5 79.7909L185.401 80.0165L184.107 84.2457C175.566 112.141 171.269 126.214 167.378 139.028L162.744 154.289L163.305 154.895C164.451 156.134 164.867 157.34 164.883 159.468C164.898 161.166 164.78 161.729 164.207 162.739C162.729 165.343 159.217 166.377 156.54 164.997C155.903 164.668 155.197 164.139 154.972 163.822C154.636 163.348 154.396 163.278 153.638 163.435C151.392 163.901 115.12 172.294 88.6071 178.483C81.1048 180.234 75.235 181.628 74.761 181.77C74.5326 181.839 74.0369 182.471 73.6596 183.175C72.6368 185.082 71.0105 186.006 68.6837 186C67.32 185.997 66.5962 185.843 65.7726 185.382L65.7739 185.382ZM113.947 168.605C133.137 164.154 148.866 160.486 148.899 160.454C148.943 160.413 113.012 154.74 110.86 154.449C110.686 154.426 106.947 156.883 102.552 159.91C98.1579 162.937 90.7647 168.025 86.1232 171.216C81.4818 174.407 77.9926 176.946 78.3694 176.858C78.7463 176.77 94.7561 173.056 113.947 168.605ZM78.007 172.419C82.2 169.542 84.6155 167.879 90.6853 163.691C91.7514 162.956 95.5377 160.35 99.0992 157.901C102.661 155.453 105.409 153.449 105.206 153.449C105.003 153.449 99.8893 152.696 93.8427 151.776L82.8489 150.104L81.8452 151.201C80.7593 152.388 79.3549 153.175 78.3204 153.176C77.7092 153.176 77.5883 153.485 76.3139 158.305C71.6935 175.781 71.9687 174.581 72.4586 175.116C72.7068 175.387 73.0109 175.609 73.1345 175.609C73.2583 175.609 75.4508 174.173 78.007 172.419ZM71.144 165.965C72.26 161.714 73.4961 156.97 73.8909 155.422L74.6086 152.607L73.6821 151.752C72.5562 150.712 71.7305 149 71.7223 147.689L71.7166 146.717L63.2239 142.834C58.553 140.698 54.6925 138.989 54.645 139.036C54.5689 139.111 56.395 144.072 63.726 163.708C64.7934 166.567 66.0599 169.983 66.5405 171.3C67.3809 173.602 67.4468 173.694 68.2648 173.694H69.1153L71.144 165.965ZM62.4098 169.171C61.5716 166.919 60.0331 162.798 58.9909 160.015C57.9487 157.231 55.6347 151.014 53.8486 146.199C52.0626 141.384 50.461 137.296 50.2896 137.113C50.0502 136.859 22.8422 124.305 14.1252 120.427L12.6109 119.753L14.8175 122.035C16.0312 123.291 27.5406 135.369 40.394 148.876C53.2474 162.383 63.802 173.396 63.8487 173.35C63.8955 173.304 63.2479 171.423 62.4098 169.171ZM153.685 156.914C153.685 156.714 152.781 155.575 151.676 154.384C150.571 153.192 149.182 151.664 148.589 150.987C147.996 150.31 146.937 149.138 146.236 148.384C145.535 147.629 143.903 145.844 142.608 144.417C141.314 142.99 139.914 141.453 139.497 141.001C138.797 140.244 138.593 140.181 136.866 140.181C135.626 140.181 134.674 140.019 134.05 139.702C133.532 139.439 133 139.223 132.868 139.223C132.737 139.223 128.752 141.895 124.013 145.16C117.106 149.919 115.5 151.139 115.918 151.308C116.204 151.424 124.103 152.704 133.47 154.153C142.837 155.603 151.061 156.884 151.747 157.002C153.587 157.316 153.685 157.312 153.685 156.914ZM156.665 153.769C156.941 153.596 156.575 149.655 154.934 135.123C153.789 124.988 152.821 116.667 152.784 116.631C152.728 116.578 146.803 123.923 142.462 129.429C141.502 130.647 141.465 130.766 141.774 131.689C142.217 133.016 142.17 135.684 141.683 136.835L141.283 137.781L148.638 145.889C152.683 150.348 156.065 153.994 156.154 153.992C156.243 153.99 156.473 153.889 156.665 153.769H156.665ZM163.789 139.633C165.72 133.314 169.215 121.865 171.555 114.191C173.895 106.517 177.182 95.7505 178.86 90.2651C180.537 84.7797 181.866 80.2489 181.813 80.1966C181.727 80.1119 177.936 84.8409 160.5 106.778C155.74 112.768 155.523 113.094 155.585 114.165C155.654 115.34 158.651 141.873 159.364 147.612C159.591 149.442 159.777 151.098 159.777 151.291C159.777 152.444 160.645 149.922 163.789 139.633ZM113.476 148.029C115.41 146.703 120.108 143.482 123.916 140.871C127.724 138.26 130.865 136.108 130.897 136.089C130.929 136.069 130.889 135.799 130.806 135.489C130.685 135.03 129.95 134.719 126.871 133.823C124.789 133.217 118.495 131.35 112.885 129.675L102.685 126.628L101.849 127.323C101.39 127.705 96.9761 131.79 92.0417 136.4C82.9238 144.918 82.2048 145.752 83.5363 146.256C83.9918 146.429 108.474 150.352 109.461 150.41C109.735 150.426 111.542 149.355 113.476 148.029H113.476ZM73.7239 142.374C74.1427 142.009 74.4854 141.546 74.4854 141.345C74.4854 140.768 68.7448 116.773 68.5643 116.594C68.4755 116.507 63.0763 114.853 56.566 112.92C45.3512 109.591 44.7049 109.431 44.2701 109.883C43.8405 110.33 44.066 111.043 47.7953 121.03C49.9865 126.899 51.9656 132.192 52.1933 132.794L52.6074 133.888L62.5079 138.442C67.9532 140.947 72.5331 143.005 72.6854 143.016C72.8377 143.027 73.305 142.738 73.7239 142.374ZM88.7414 134.584C92.7044 130.904 96.55 127.334 97.2872 126.65L98.6276 125.408L97.5641 125.094C96.9792 124.922 94.8184 124.288 92.7622 123.684C90.7061 123.081 85.2898 121.473 80.7262 120.112C76.1625 118.75 72.3695 117.695 72.2973 117.766C72.2251 117.837 73.3951 123.055 74.8973 129.36L77.6287 140.824L78.757 141.115C79.3776 141.274 80.0681 141.523 80.2915 141.666C80.8102 142 80.2455 142.473 88.7414 134.584ZM48.3295 131.358C48.2401 131.094 46.5105 126.458 44.4861 121.054L40.8053 111.229L39.4378 110.839C38.6856 110.624 37.6658 110.146 37.1715 109.776L36.2728 109.104L23.7538 111.863C16.8683 113.38 11.1791 114.676 11.1112 114.743C11.0432 114.81 11.7851 115.233 12.7598 115.683C23.6402 120.703 48.091 131.821 48.2657 131.828C48.3904 131.832 48.4188 131.621 48.3295 131.358H48.3295ZM132.162 130.035L133.175 128.917L130.207 116.426C128.575 109.556 127.152 103.965 127.045 104.002C126.852 104.068 114.367 115.599 108.824 120.83C107.224 122.34 105.978 123.636 106.054 123.711C106.225 123.879 130.777 131.242 130.994 131.19C131.08 131.169 131.605 130.65 132.162 130.035ZM139.971 127.106C140.576 126.322 143.597 122.518 146.683 118.652L152.295 111.623L151.06 100.596C149.485 86.5324 149.593 87.2438 149.048 87.2438C148.8 87.2438 148.05 86.9814 147.379 86.6606L146.159 86.0774L144.591 87.5544C143.729 88.3668 141.715 90.2635 140.116 91.7694C138.517 93.2753 135.557 96.03 133.539 97.8911C131.521 99.7521 129.87 101.465 129.87 101.698C129.87 101.931 131.24 107.877 132.916 114.912C134.591 121.946 135.962 127.77 135.962 127.854C135.962 127.938 136.367 128.008 136.862 128.011C137.357 128.013 137.949 128.134 138.177 128.28C138.774 128.661 138.763 128.668 139.971 127.106V127.106ZM114.07 111.066C122.42 103.313 126.235 99.5969 126.146 99.3019C126.02 98.8844 125.193 95.4339 121.538 80.0951L119.802 72.8097L115.628 71.5716C113.333 70.8906 106.43 68.837 100.289 67.0078L89.1233 63.6822L87.8274 64.8391C87.1146 65.4754 85.3465 67.1143 83.8981 68.4811C82.4498 69.8478 77.5586 74.3986 73.0289 78.5939C68.4993 82.7893 64.7984 86.421 64.8047 86.6644C64.8103 86.9079 66.2248 93.0099 67.9464 100.224C70.0542 109.058 71.2036 113.386 71.4656 113.477C72.9443 113.992 101.524 122.469 101.674 122.437C101.778 122.416 107.357 117.299 114.07 111.066ZM65.2175 101.985C63.916 96.5105 62.7109 91.4158 62.5395 90.6635C62.368 89.9112 62.172 89.1992 62.1038 89.0813C62.0356 88.9634 60.8993 89.8777 59.5788 91.113C58.2582 92.3484 54.779 95.5661 51.8471 98.2636L46.5163 103.168V104.623C46.5163 106.026 46.5487 106.088 47.4163 106.354C47.9113 106.506 51.494 107.572 55.3778 108.724C59.2616 109.876 63.5608 111.155 64.9316 111.566C66.3024 111.978 67.4599 112.23 67.5039 112.127C67.5479 112.023 66.519 107.46 65.2175 101.985ZM16.7472 109.574C19.1842 109.041 24.0441 107.985 27.5472 107.227C31.0503 106.469 34.1968 105.784 34.5395 105.706C35.0795 105.582 35.1625 105.387 35.1625 104.243C35.1625 102.55 36.1147 100.725 37.4501 99.86C38.274 99.3263 38.4341 99.0778 38.3313 98.4921C38.2622 98.0985 37.7691 93.7139 37.2355 88.7485C36.7019 83.7831 36.1722 79.3647 36.0584 78.9298C35.861 78.1757 35.5187 78.5562 28.6719 87.137C24.7231 92.0859 20.6042 97.243 19.5188 98.5972C16.8086 101.979 11.2904 108.932 11.0522 109.267C10.7062 109.752 11.297 110.822 11.8301 110.676C12.0977 110.602 14.3103 110.106 16.7472 109.574ZM161.994 99.4179C165.694 94.7534 169.366 90.1369 170.155 89.1588C178.169 79.2269 180.004 76.7683 179.829 76.2029C179.729 75.8806 179.611 75.5765 179.567 75.5272C179.502 75.4536 168.01 77.9173 158.254 80.0963L156.039 80.5912L155.867 81.9541C155.588 84.177 154.248 86.2833 152.813 86.7559C152.555 86.8407 152.752 89.3494 153.636 97.2463C154.275 102.955 154.797 107.804 154.796 108.022C154.793 108.535 154.229 109.208 161.994 99.4179H161.994ZM12.7858 101.47C14.5207 99.288 20.3316 91.9904 25.6989 85.2529L35.4576 73.0028L34.0593 60.4943C32.3812 45.4818 31.0921 34.7086 30.958 34.5761C30.9042 34.5228 26.0106 50.3831 20.0835 69.8211C14.1565 89.2592 9.24933 105.348 9.17872 105.573C8.97935 106.211 9.35891 105.779 12.7858 101.47ZM53.0076 92.3699C57.4986 88.1926 61.1187 84.6224 61.0522 84.4362C60.9857 84.25 59.5571 78.3218 57.8776 71.2624C56.1981 64.203 54.7928 58.4079 54.7547 58.3843C54.7166 58.3606 54.0915 58.2132 53.3656 58.0565L52.0457 57.7715L48.5426 62.1802C46.6159 64.605 44.3374 67.4506 43.4792 68.5039C42.621 69.5572 41.1601 71.4038 40.2329 72.6075L38.5469 74.7961L39.893 86.6967C40.6333 93.242 41.2426 98.6184 41.2469 98.6444C41.2526 98.6703 41.7221 98.8417 42.2933 99.0253C42.8644 99.2088 43.5786 99.5269 43.8804 99.7321C44.1822 99.9373 44.522 100.074 44.6356 100.035C44.7493 99.9966 48.5166 96.5472 53.0076 92.3699ZM140.201 86.803L144.369 82.9424L144.388 81.5366C144.4 80.7635 144.402 80.1309 144.397 80.1309C144.391 80.1309 139.659 78.7207 133.883 76.9971C128.108 75.2736 123.333 73.9122 123.272 73.9718C123.212 74.0315 123.606 75.9033 124.148 78.1314C124.69 80.3596 125.832 85.1373 126.687 88.7485C127.541 92.3597 128.364 95.7835 128.516 96.3571L128.792 97.3999L132.412 94.0317C134.403 92.1792 137.908 88.9263 140.2 86.803H140.201ZM75.3162 71.6333C80.5707 66.7602 84.9031 62.7023 84.9436 62.616C84.9843 62.5296 79.3226 60.766 72.3624 58.6968C61.4439 55.451 59.6743 54.9933 59.4658 55.3613C59.333 55.596 58.9195 56.0889 58.5471 56.4568C58.1748 56.8247 57.8701 57.3024 57.8701 57.5184C57.8701 57.8096 61.9086 75.0167 63.556 81.7444L63.7167 82.4005L64.7396 81.4471C65.3022 80.9227 70.0617 76.5065 75.3163 71.6333H75.3162ZM179.708 71.4451C179.926 71.2806 179.245 70.9403 173.208 68.1945C170.009 66.7398 164.651 64.292 161.3 62.7549C157.95 61.2177 154.46 59.619 153.547 59.2022C152.633 58.7853 150.14 57.6475 148.008 56.6737C145.876 55.6999 143.729 54.7313 143.238 54.5213L142.344 54.1393L143.18 56.3973C143.64 57.6391 145.409 62.3792 147.112 66.9309L150.207 75.2065H151.084C151.615 75.2065 152.493 75.5593 153.308 76.0999L154.654 76.9933L167.116 74.2684C173.969 72.7697 179.636 71.4992 179.708 71.4451ZM146.714 76.2212C146.934 75.9593 145.884 72.8484 142.653 64.1878C140.257 57.7637 138.176 52.3896 138.029 52.2454C137.882 52.1011 134.397 50.4543 130.285 48.5858C126.173 46.7173 121.749 44.6993 120.454 44.1016L118.101 43.0147L117.201 43.722C116.706 44.111 116.301 44.614 116.301 44.8397C116.301 45.0654 116.735 47.0351 117.267 49.2169C117.798 51.3986 119.107 56.867 120.175 61.3687C121.243 65.8705 122.148 69.5728 122.186 69.5961C122.519 69.8013 145.381 76.5186 145.828 76.5427C146.152 76.5602 146.551 76.4154 146.714 76.2212ZM43.8608 62.4564C49.4139 55.4813 49.4948 55.3609 49.1162 54.6336C48.61 53.661 48.6236 50.5492 49.1387 49.3297L49.5464 48.3657L46.9926 45.5541C45.588 44.0077 42.9434 41.1073 41.1157 39.1087C39.2881 37.1102 37.1851 34.7813 36.4426 33.9335C35.7 33.0857 34.9523 32.3614 34.781 32.3239C33.7646 32.1018 33.7873 32.4929 35.868 51.0018C37.0009 61.0794 37.9286 69.4375 37.9295 69.5754C37.9318 69.9213 37.6018 70.3175 43.8602 62.4564H43.8608ZM116.712 59.7296C115.57 54.9256 114.318 49.6979 113.928 48.1125L113.22 45.2298L112.06 44.9408C111.423 44.7819 110.692 44.5614 110.437 44.4509C110.083 44.2972 107.911 46.1658 101.216 52.3836C96.4 56.8571 92.5586 60.6014 92.68 60.7043C92.8013 60.8072 95.4553 61.6493 98.5776 62.5755C101.7 63.5017 107.494 65.228 111.454 66.4116C115.414 67.5952 118.684 68.5412 118.721 68.5139C118.757 68.4866 117.853 64.5336 116.712 59.7296ZM177.465 65.7042C177.256 65.4434 173.274 61.2269 168.617 56.3343C163.96 51.4417 153.072 39.9905 144.421 30.8873C135.771 21.7841 128.268 13.9051 127.749 13.3785L126.805 12.421L127.202 13.5153C127.42 14.1172 129.115 18.6722 130.968 23.6376C132.821 28.603 135.714 36.3803 137.397 40.9205L140.458 49.1754L146.725 52.0507C150.172 53.6322 157.479 56.9759 162.962 59.4811C168.445 61.9864 173.928 64.5075 175.146 65.0836C177.678 66.2805 177.995 66.3653 177.465 65.7042ZM98.3309 50.3112C106.831 42.4333 107.909 41.342 107.785 40.736C107.708 40.3599 107.567 39.9747 107.473 39.88C107.308 39.7151 84.8183 36.1554 82.2323 35.8849C80.9948 35.7555 80.9032 35.806 74.8938 39.9288C71.5469 42.2251 67.1885 45.2135 65.2085 46.5698C60.1543 50.0319 60.0855 50.0863 60.0855 50.615C60.0855 50.9104 60.4251 51.1952 60.9855 51.3697C61.4805 51.5238 65.1878 52.6345 69.2239 53.8378C73.26 55.0412 78.9923 56.7646 81.9623 57.6676C84.9323 58.5706 87.6716 59.2854 88.0497 59.2559C88.5334 59.2182 91.5818 56.5661 98.3309 50.3112ZM134.614 42.6203C133.711 40.1545 132.778 37.6446 132.54 37.0428C132.303 36.4409 130.172 30.7361 127.805 24.3655C125.439 17.9948 123.439 12.6811 123.362 12.5573C123.284 12.4335 122.89 12.4195 122.487 12.5262C121.775 12.7142 121.667 13.0451 119.011 23.1107L116.269 33.5011L117.379 34.6536C118.492 35.8099 119.058 37.1541 119.076 38.6842C119.085 39.4927 119.213 39.5623 127.593 43.3675C132.272 45.492 136.135 47.2017 136.178 47.1668C136.22 47.132 135.516 45.0861 134.614 42.6203ZM63.8239 43.0704C66.2608 41.3919 69.9282 38.864 71.9737 37.4528C74.0192 36.0416 75.5769 34.8527 75.4352 34.8109C75.184 34.7366 41.3331 29.4727 38.6627 29.0926C37.3765 28.9096 36.844 29.1297 36.8283 29.851C36.826 29.9582 40.188 33.7409 44.2995 38.2572C51.4457 46.1069 51.8063 46.4569 52.4867 46.2013C53.6063 45.7808 55.6896 45.9009 56.9009 46.4557C58.2164 47.0584 57.5879 47.3657 63.8239 43.0704V43.0704ZM109.345 34.7237C110.371 33.7096 111.001 33.3183 111.812 33.1901C112.411 33.0955 113.018 32.9387 113.161 32.8418C113.396 32.683 115.195 26.0809 117.924 15.362C118.911 11.4842 118.913 11.461 118.37 10.9353C117.829 10.4115 117.681 10.5046 101.918 21.3278C93.1694 27.3344 85.9093 32.3501 85.7841 32.4737C85.6589 32.5974 87.3959 32.9751 89.644 33.313C98.5025 34.6447 102.687 35.29 104.808 35.6516C107.965 36.1897 107.834 36.2166 109.345 34.7237ZM96.5109 20.5851C105.418 14.4674 112.664 9.42099 112.613 9.37076C112.49 9.24963 42.0679 25.6157 41.8699 25.8113C41.7853 25.8947 42.0797 25.963 42.5239 25.963C42.968 25.963 44.7645 26.2099 46.5162 26.5116C49.4378 27.0149 57.183 28.241 70.747 30.3476C73.6408 30.797 76.5692 31.2735 77.2546 31.4064C80.1431 31.9666 79.0255 32.5947 96.5109 20.5851V20.5851Z" fill="#665DF5"/>
</svg>
