<svg width="188" height="187" viewBox="0 0 188 187" fill="none" xmlns="http://www.w3.org/2000/svg">
<path d="M90.3237 178.952V170.904H93.9996H97.6755V178.952V187H93.9996H90.3237V178.952ZM79.2961 186.2C68.6186 184.713 57.7309 181.583 48.8781 177.455L45.8455 176.04V168.084V160.127L50.1119 161.969C58.3276 165.514 69.7758 168.602 79.2042 169.816L82.6044 170.253V178.44C82.6044 184.764 82.4999 186.615 82.1449 186.579C81.8921 186.554 80.6102 186.384 79.2961 186.2V186.2ZM105.395 178.45V170.265L110.192 169.62C119.233 168.403 130.579 165.229 138.753 161.63L142.154 160.133V168.112V176.09L140.04 177.084C129.959 181.829 120.043 184.627 106.957 186.42L105.395 186.635V178.45ZM34.8179 169.371C33.0994 168.133 31.4039 166.92 31.0501 166.676C30.4738 166.278 30.4068 165.461 30.4068 158.836C30.4068 154.768 30.5008 151.439 30.6157 151.439C30.7306 151.439 32.4674 152.482 34.4754 153.756L38.1262 156.074V163.863C38.1262 168.147 38.0847 171.646 38.0343 171.638C37.9838 171.629 36.5364 170.609 34.818 169.371H34.8179ZM149.873 163.858V156.074L153.524 153.756C155.532 152.482 157.269 151.439 157.384 151.439C157.498 151.439 157.592 154.787 157.592 158.879V166.319L154.756 168.331C153.196 169.437 151.459 170.635 150.896 170.992L149.873 171.642L149.873 163.858ZM84.4423 162.654C64.5725 160.716 46.5823 153.838 31.708 142.493C27.423 139.224 19.9197 131.904 16.7059 127.857C11.0312 120.711 6.30836 112.006 3.60596 103.713C-4.98264 77.3571 1.97321 49.4396 22.312 28.6358C36.9685 13.6442 56.2237 4.17497 79.1123 0.702899C84.6293 -0.134004 102.559 -0.25484 107.784 0.509669C124.742 2.99061 138.858 8.29052 151.784 17.0301C181.956 37.43 194.867 71.6611 184.43 103.587C180.806 114.673 174.924 124.372 166.443 133.245C151.383 149.003 131.516 158.843 108.128 162.13C103.26 162.814 89.2593 163.124 84.4423 162.654V162.654ZM105.807 154.63C123.595 152.512 140.694 145.483 153.549 135.007C159.809 129.906 167.515 121.019 171.274 114.569C182.623 95.0888 183.439 72.6014 173.529 52.4309C157.722 20.2602 117.096 1.93749 76.9067 8.8528C61.0595 11.5796 46.268 18.1835 34.3723 27.8431C19.462 39.9506 10.0895 56.3601 7.95909 74.0878C7.34222 79.2208 7.71381 88.7803 8.71779 93.6064C12.4263 111.433 23.0247 127.092 39.0451 138.414C51.8189 147.442 67.3714 153.098 84.4423 154.925C88.1134 155.318 101.597 155.132 105.807 154.63V154.63ZM88.302 147.474C81.3667 146.758 78.8895 146.409 74.9556 145.594C53.5108 141.152 34.9517 128.997 24.4374 112.51C17.6124 101.807 14.5551 89.9323 15.3784 77.3234C16.4651 60.6831 25.5384 44.3883 39.9721 33.1555C46.44 28.1219 55.0154 23.3519 62.5343 20.6053C81.6274 13.6308 104.077 13.3779 123.407 19.9195C132.279 22.922 141.992 28.2072 148.792 33.7327C162.939 45.2272 171.556 60.9911 172.62 77.3234C173.771 94.9915 167.372 111.023 153.864 124.317C147.495 130.585 142.18 134.31 133.605 138.516C124.707 142.881 116.28 145.427 106.314 146.761C101.969 147.343 91.1739 147.77 88.302 147.474V147.474ZM100.379 126.926C105.957 125.723 110.309 122.684 111.305 119.296C111.684 118.008 111.657 117.52 111.128 116.108C109.364 111.405 102.635 108.362 93.9996 108.362C85.3645 108.362 78.635 111.405 76.8715 116.108C76.3419 117.52 76.3148 118.008 76.6939 119.296C77.6747 122.63 82.0281 125.711 87.4525 126.91C90.5409 127.593 97.2493 127.601 100.379 126.926L100.379 126.926ZM70.1871 113.551C72.0258 112.123 72.8111 110.222 72.9815 106.789C73.2595 101.185 70.6077 95.0906 65.6953 90.0432C62.2714 86.5252 59.2234 84.7955 55.9809 84.5305C51.0437 84.1269 48.318 87.173 48.342 93.0674C48.3748 101.123 54.6896 110.771 61.9714 113.891C64.8599 115.128 68.3416 114.984 70.1871 113.551V113.551ZM125.551 114.065C133 111.183 139.639 101.277 139.639 93.0432C139.639 88.7266 138.584 86.5768 135.74 85.099C133.623 83.9988 130.483 84.3244 127.404 85.9633C124.477 87.521 120.057 91.9855 118.159 95.2999C113.692 103.102 113.938 111.739 118.694 114.126C120.32 114.942 123.354 114.915 125.551 114.065V114.065ZM60.4797 76.7318C67.1035 73.4203 72.5058 65.0466 72.9562 57.3931C73.1833 53.5339 72.6044 51.5296 70.7451 49.7368C65.6781 44.8512 55.644 50.2805 50.5167 60.682C47.5154 66.7706 47.6378 73.8148 50.794 76.6426C53.1787 78.7791 56.3265 78.8081 60.4797 76.7318L60.4797 76.7318ZM134.583 78.042C139.851 76.6913 141.259 69.2528 137.743 61.3554C133.883 52.6875 125.313 46.3544 119.85 48.133C114.436 49.8958 113.314 57.5756 117.295 65.6257C120.379 71.8608 124.966 76.2291 130.207 77.9215C132.072 78.5237 132.643 78.5394 134.583 78.042V78.042ZM101.535 53.5758C104.715 52.7017 107.459 51.2469 109.261 49.4802C114.318 44.5203 110.66 38.5179 100.984 35.9013C97.708 35.0154 90.2912 35.0154 87.0154 35.9013C76.0765 38.8595 73.0633 46.0872 80.6912 51.0716C82.7684 52.429 84.8429 53.2318 88.1182 53.946C91.1651 54.6103 98.5089 54.4077 101.535 53.5758V53.5758ZM20.2299 156.465C12.1267 147.137 6.18531 136.03 3.03225 124.315C2.31904 121.665 1.78165 119.449 1.83806 119.392C1.89448 119.335 2.80998 120.78 3.87252 122.604C7.71106 129.193 14.2533 137.303 19.7357 142.268L22.6289 144.889L22.6582 151.907C22.6742 155.767 22.6154 158.926 22.5274 158.926C22.4393 158.926 21.4056 157.819 20.23 156.465H20.2299ZM165.328 152.133L165.312 145.154L168.344 142.264C174.429 136.466 180.341 129.102 184.117 122.62C185.185 120.787 186.105 119.335 186.161 119.392C186.418 119.654 183.606 129.186 182.249 132.652C178.763 141.559 173.379 150.338 167.401 156.867L165.345 159.113L165.328 152.133H165.328Z" fill="black"/>
</svg>
