<svg width="108" height="126" viewBox="0 0 108 126" fill="none" xmlns="http://www.w3.org/2000/svg">
<path fill-rule="evenodd" clip-rule="evenodd" d="M16.049 16.6978C28.401 15.1938 38.128 11.0558 46.549 3.72078C52.386 -1.36322 55.613 -1.09023 63.311 5.13777C70.889 11.2688 79.046 14.6238 91.09 16.5628C101.435 18.2278 105.039 20.5708 107.164 27.0098C108.783 31.9148 107.652 63.3498 105.505 73.1598C100.244 97.1918 85.831 114.327 63.112 123.558C55.096 126.816 52.539 126.814 44.769 123.546C31.628 118.02 19.568 108.437 12.676 98.0448C4.23403 85.3168 1.17402 72.7648 0.358025 47.5148C-0.199975 30.2608 -0.120976 29.1458 1.95402 24.8578C4.48002 19.6408 7.83702 17.6968 16.049 16.6978ZM91.325 24.7038C78.192 23.1238 67.901 19.1398 59.328 12.3168C56.457 10.0318 53.982 8.17977 53.828 8.20277C53.675 8.22477 51.974 9.59877 50.049 11.2558C41.932 18.2408 31.848 22.4998 19.205 24.2808C8.38802 25.8038 8.04902 26.3278 8.04902 41.5488C8.04902 64.3738 11.075 79.3908 18.045 91.1618C24.46 101.995 35.07 110.769 48.299 116.179L54.049 118.53L59.799 116.196C62.961 114.912 68.552 111.893 72.222 109.486C92.151 96.4188 100.049 77.1678 100.049 41.6608C100.049 26.7618 99.496 25.6868 91.325 24.7038ZM24.759 50.9858C28.852 41.9238 37.534 34.5138 46.783 32.1918C52.006 30.8798 61.389 31.7758 66.609 34.0858C72.907 36.8708 80.433 44.3238 83.132 50.4478C86.261 57.5478 86.345 68.6798 83.32 75.3788C80.318 82.0278 72.977 89.5058 66.763 92.2448C59.663 95.3738 48.531 95.4578 41.832 92.4328C35.183 89.4308 27.705 82.0898 24.966 75.8758C21.846 68.7968 21.753 57.6418 24.759 50.9858ZM77.093 58.4678C75.582 51.7138 70.864 45.4538 65.04 42.4718C55.347 37.5098 45.097 39.0618 37.519 46.6388C29.17 54.9878 28.137 67.4618 35.009 76.9468C38.527 81.8048 43.197 84.7698 49.691 86.2688C65.407 89.8958 80.663 74.4188 77.093 58.4678ZM46.593 65.2698C48.61 67.0988 48.734 67.0258 56.068 59.6428C60.905 54.7728 64.281 52.1618 65.739 52.1618C68.524 52.1618 70.496 55.4658 69.172 57.9118C67.332 61.3108 50.281 77.1618 48.466 77.1618C45.81 77.1618 38.049 69.2098 38.049 66.4888C38.049 64.0208 40.678 62.1468 43.049 62.9238C43.874 63.1948 45.469 64.2508 46.593 65.2698Z" fill="#00FFC6"/>
</svg>
