<svg width="107" height="96" viewBox="0 0 107 96" fill="none" xmlns="http://www.w3.org/2000/svg">
<path fill-rule="evenodd" clip-rule="evenodd" d="M0.0914459 37.6718C-0.258554 9.33685 0.228441 5.47284 4.57344 2.05484C7.12044 0.0508401 8.30045 0.000839233 52.8264 0.000839233C93.0766 0.000839233 100.197 -0.142113 102.861 3.23275C103.546 4.10131 103.937 5.20287 104.52 6.59984C106.545 11.4468 106.527 58.5988 104.498 63.4548C102.466 68.3168 98.9715 70.1918 90.8605 70.7728L83.8694 71.2728L89.3914 77.0629C94.0234 81.9179 94.9144 83.4418 94.9144 86.5038C94.9144 91.6038 90.4954 96.0008 85.3694 96.0008C82.0984 96.0008 80.7284 95.0828 73.5424 88.0768L65.4144 80.1539L59.9144 81.6198C50.5664 84.1128 40.8754 81.5738 33.1704 74.6138C29.2484 71.0698 29.0114 71.0008 20.7934 70.9948C10.6144 70.9888 6.03544 69.8228 2.84044 66.4238C0.419439 63.8478 0.413446 63.7948 0.0914459 37.6718ZM98.9144 35.1298C98.9144 16.4518 98.5854 9.07184 97.7144 8.20084C95.9884 6.47484 9.84044 6.47484 8.11444 8.20084C7.24344 9.07184 6.91444 16.4518 6.91444 35.1298C6.91444 57.1858 7.13844 61.0818 8.48544 62.4298C9.65244 63.5958 12.1175 64.0008 18.0535 64.0008C25.8965 64.0008 26.0354 63.9578 25.3154 61.7508C23.6434 56.6238 24.5944 47.1748 27.3494 41.5428C32.6634 30.6828 42.3794 25.3828 55.4374 26.2208C66.6554 26.9408 74.5495 32.4658 79.1485 42.8158C81.1285 47.2718 81.8644 57.5408 80.5054 61.7508C79.7934 63.9568 79.9354 64.0008 87.7754 64.0008C93.7114 64.0008 96.1764 63.5958 97.3434 62.4298C98.6904 61.0818 98.9144 57.1858 98.9144 35.1298ZM14.8404 18.9268C12.4244 16.5108 12.4244 15.4908 14.8404 13.0748C16.0744 11.8408 17.5404 11.3518 18.9244 11.7138C21.5174 12.3918 22.3384 14.1768 21.5334 17.3838C20.7304 20.5828 17.2894 21.3758 14.8404 18.9268ZM24.9144 16.0008C24.9144 13.7478 25.5104 12.7048 27.1644 12.0638C32.0994 10.1498 35.8334 16.7128 31.4144 19.5338C28.2434 21.5578 24.9144 19.7488 24.9144 16.0008ZM35.9144 16.0008C35.9144 15.4508 36.8034 14.1118 37.8904 13.0248C40.8674 10.0478 44.4144 11.6668 44.4144 16.0008C44.4144 20.3348 40.8674 21.9538 37.8904 18.9768C36.8034 17.8898 35.9144 16.5508 35.9144 16.0008ZM52.0694 16.5668C51.8644 15.5028 52.5064 14.0408 53.4964 13.3168C54.8144 12.3538 59.7534 12.0008 71.9144 12.0008C89.5044 12.0008 92.5054 12.6918 91.7594 16.5668C91.4064 18.3998 90.3704 18.5008 71.9144 18.5008C53.4584 18.5008 52.4224 18.3998 52.0694 16.5668ZM61.9144 74.0728C78.4564 65.4178 78.6094 42.9028 62.1814 34.6008C57.8984 32.4368 51.3364 31.8508 46.4724 33.1978C40.4604 34.8638 33.5134 42.3368 31.9614 48.8068C29.6244 58.5458 34.4184 69.0528 43.3394 73.7488C47.1094 75.7338 58.3644 75.9298 61.9144 74.0728ZM50.1525 55.2388L55.2834 50.0918C60.6054 44.7518 64.0624 43.7608 64.7514 47.3768C65.1714 49.5748 52.4034 63.0008 49.8944 63.0008C47.4934 63.0008 40.6654 55.5338 41.0804 53.3618C41.5934 50.6688 45.4144 50.5008 47.9724 53.0588L50.1525 55.2388ZM77.2085 82.7968C83.9375 89.4658 87.9144 90.9239 87.9144 86.7218C87.9144 85.2518 85.6774 82.2259 81.6124 78.1969L75.3104 71.9509L73.1294 74.2718L70.9494 76.5928L77.2085 82.7968Z" fill="#6C63FF"/>
</svg>
