<svg width="108" height="97" viewBox="0 0 108 97" fill="none" xmlns="http://www.w3.org/2000/svg">
<path fill-rule="evenodd" clip-rule="evenodd" d="M1.07387 37.7527C0.723868 9.41766 1.21086 5.55365 5.55586 2.13565C8.10286 0.131651 9.28287 0.0816498 53.8089 0.0816498C94.059 0.0816498 101.18 -0.0613021 103.843 3.31356C104.529 4.18212 104.919 5.28368 105.503 6.68065C107.528 11.5276 107.51 58.6796 105.481 63.5356C103.449 68.3976 99.9539 70.2727 91.8429 70.8537L84.8519 71.3537L90.3739 77.1437C95.0059 81.9987 95.8969 83.5226 95.8969 86.5846C95.8969 91.6846 91.4779 96.0816 86.3519 96.0816C83.0809 96.0816 81.7109 95.1636 74.5249 88.1576L66.3969 80.2347L60.8969 81.7006C51.5489 84.1936 41.8579 81.6547 34.1529 74.6947C30.2309 71.1507 29.9939 71.0816 21.7759 71.0756C11.5969 71.0696 7.01786 69.9037 3.82286 66.5047C1.40186 63.9287 1.39587 63.8757 1.07387 37.7527ZM99.8969 35.2106C99.8969 16.5326 99.5679 9.15265 98.6969 8.28165C96.9709 6.55565 10.8229 6.55565 9.09686 8.28165C8.22586 9.15265 7.89687 16.5326 7.89687 35.2106C7.89687 57.2666 8.12086 61.1627 9.46786 62.5107C10.6349 63.6767 13.0999 64.0816 19.0359 64.0816C26.8789 64.0816 27.0179 64.0387 26.2979 61.8316C24.6259 56.7047 25.5769 47.2557 28.3319 41.6237C33.6459 30.7637 43.3619 25.4637 56.4199 26.3017C67.6379 27.0217 75.5319 32.5467 80.1309 42.8967C82.1109 47.3527 82.8469 57.6217 81.4879 61.8316C80.7759 64.0377 80.9179 64.0816 88.7579 64.0816C94.6939 64.0816 97.1589 63.6767 98.3259 62.5107C99.6729 61.1627 99.8969 57.2666 99.8969 35.2106ZM15.8229 19.0076C13.4069 16.5916 13.4069 15.5717 15.8229 13.1557C17.0569 11.9217 18.5229 11.4326 19.9069 11.7946C22.4999 12.4726 23.3209 14.2576 22.5159 17.4646C21.7129 20.6636 18.2719 21.4566 15.8229 19.0076ZM25.8969 16.0816C25.8969 13.8286 26.4929 12.7857 28.1469 12.1447C33.0819 10.2307 36.8159 16.7937 32.3969 19.6147C29.2259 21.6387 25.8969 19.8296 25.8969 16.0816ZM36.8969 16.0816C36.8969 15.5316 37.7859 14.1927 38.8729 13.1057C41.8499 10.1287 45.3969 11.7477 45.3969 16.0816C45.3969 20.4156 41.8499 22.0346 38.8729 19.0576C37.7859 17.9706 36.8969 16.6316 36.8969 16.0816ZM53.0519 16.6476C52.8469 15.5836 53.4889 14.1216 54.4789 13.3976C55.7969 12.4346 60.7359 12.0816 72.8969 12.0816C90.4869 12.0816 93.4879 12.7726 92.7419 16.6476C92.3889 18.4806 91.3529 18.5816 72.8969 18.5816C54.4409 18.5816 53.4049 18.4806 53.0519 16.6476ZM62.8969 74.1536C79.4389 65.4986 79.5919 42.9837 63.1639 34.6817C58.8809 32.5177 52.3189 31.9317 47.4549 33.2787C41.4429 34.9447 34.4959 42.4176 32.9439 48.8876C30.6069 58.6266 35.4009 69.1336 44.3219 73.8296C48.0919 75.8146 59.3469 76.0106 62.8969 74.1536ZM51.1349 55.3197L56.2659 50.1727C61.5879 44.8327 65.0449 43.8417 65.7339 47.4577C66.1539 49.6557 53.3859 63.0816 50.8769 63.0816C48.4759 63.0816 41.6479 55.6146 42.0629 53.4426C42.5759 50.7496 46.3969 50.5816 48.9549 53.1396L51.1349 55.3197ZM78.1909 82.8776C84.9199 89.5466 88.8969 91.0047 88.8969 86.8027C88.8969 85.3327 86.6599 82.3067 82.5949 78.2777L76.2929 72.0317L74.1119 74.3526L71.9319 76.6737L78.1909 82.8776Z" fill="#00FFC6"/>
</svg>
