<?xml version="1.0" encoding="UTF-8" standalone="no"?>
<svg
   width="128"
   height="127"
   viewBox="0 0 128 127"
   fill="none"
   version="1.1"
   id="svg4"
   sodipodi:docname="technology_2.svg"
   inkscape:version="1.2.1 (9c6d41e4, 2022-07-14)"
   xmlns:inkscape="http://www.inkscape.org/namespaces/inkscape"
   xmlns:sodipodi="http://sodipodi.sourceforge.net/DTD/sodipodi-0.dtd"
   xmlns="http://www.w3.org/2000/svg"
   xmlns:svg="http://www.w3.org/2000/svg">
  <defs
     id="defs8" />
  <sodipodi:namedview
     id="namedview6"
     pagecolor="#ffffff"
     bordercolor="#000000"
     borderopacity="0.25"
     inkscape:showpageshadow="2"
     inkscape:pageopacity="0.0"
     inkscape:pagecheckerboard="0"
     inkscape:deskcolor="#d1d1d1"
     showgrid="false"
     inkscape:zoom="1.5590551"
     inkscape:cx="-138.86616"
     inkscape:cy="67.989899"
     inkscape:window-width="1390"
     inkscape:window-height="942"
     inkscape:window-x="0"
     inkscape:window-y="25"
     inkscape:window-maximized="0"
     inkscape:current-layer="svg4" />
  <path
     fill-rule="evenodd"
     clip-rule="evenodd"
     d="M16.9399 14.2353C13.1879 10.4833 12.9929 6.39425 16.3919 2.72725C21.6529 -2.94875 30.9399 0.822255 30.9399 8.63425C30.9399 11.3943 30.2119 12.9593 27.9399 15.0813L24.9399 17.8833V31.4823V45.0813H32.4399H39.9399V42.0813V39.0813H50.4399H60.9399V31.9633C60.9399 25.4313 60.6849 24.5553 57.8439 21.3193C55.3249 18.4503 54.8589 17.2133 55.3429 14.6873C56.1019 10.7243 60.2199 7.08125 63.9399 7.08125C67.6599 7.08125 71.7779 10.7243 72.5369 14.6873C73.0209 17.2133 72.5549 18.4503 70.0359 21.3193C67.1949 24.5553 66.9399 25.4313 66.9399 31.9633V39.0813H71.4399H75.9399L75.9549 30.3313C75.9639 25.5193 76.3379 21.0013 76.7879 20.2933C77.3859 19.3503 80.2619 19.0823 87.5229 19.2933C96.9449 19.5673 97.4559 19.6933 97.7599 21.8313C98.0679 24.0053 97.8059 24.0813 90.0099 24.0813H81.9399V31.5813V39.0813H84.9399H87.9399V49.5813V60.0813H95.0579C101.59 60.0813 102.466 59.8263 105.702 56.9853C108.571 54.4663 109.808 54.0003 112.334 54.4843C116.297 55.2433 119.94 59.3613 119.94 63.0813C119.94 66.8013 116.297 70.9193 112.334 71.6783C109.808 72.1623 108.571 71.6963 105.702 69.1773C102.466 66.3363 101.59 66.0813 95.0579 66.0813H87.9399V70.5813V75.0813H96.7399C102.251 75.0813 105.988 75.5293 106.74 76.2812C107.572 77.1133 107.94 82.3083 107.94 93.2043V108.927L110.94 111.927C114.692 115.679 114.887 119.768 111.488 123.435C106.227 129.111 96.9399 125.34 96.9399 117.528C96.9399 114.768 97.6679 113.203 99.9399 111.081L102.94 108.279V94.6803V81.0813H95.4399H87.9399V84.0813V87.0813H77.4399H66.9399V94.1992C66.9399 100.731 67.1949 101.607 70.0359 104.843C72.5549 107.712 73.0209 108.949 72.5369 111.475C71.7779 115.438 67.6599 119.081 63.9399 119.081C60.2199 119.081 56.1019 115.438 55.3429 111.475C54.8589 108.949 55.3249 107.712 57.8439 104.843C60.6849 101.607 60.9399 100.731 60.9399 94.1992V87.0813H56.4399H51.9399V95.9593C51.9399 102.346 51.5469 105.162 50.5409 105.997C49.6379 106.747 45.8259 107.056 39.7909 106.87C30.9569 106.597 30.4219 106.457 30.1199 104.331C29.8119 102.157 30.0739 102.081 37.8699 102.081H45.9399V94.5813V87.0813H42.9399H39.9399V76.5813V66.0813H32.8219C26.2899 66.0813 25.4139 66.3363 22.1779 69.1773C19.3089 71.6963 18.0719 72.1623 15.5459 71.6783C11.5829 70.9193 7.93991 66.8013 7.93991 63.0813C7.93991 59.3613 11.5829 55.2433 15.5459 54.4843C18.0719 54.0003 19.3089 54.4663 22.1779 56.9853C25.4139 59.8263 26.2899 60.0813 32.8219 60.0813H39.9399V55.5813V51.0813H31.5219C26.8919 51.0813 22.3919 50.8083 21.5219 50.4743C20.1689 49.9553 19.9399 47.5073 19.9399 33.5513V17.2353L16.9399 14.2353ZM22.4709 11.0813C25.4169 11.0813 26.7079 8.71125 24.9289 6.56825C22.5889 3.74825 19.9399 4.90525 19.9399 8.74825C19.9399 10.5783 20.4859 11.0813 22.4709 11.0813ZM64.1859 18.9013C65.8379 18.6663 66.4399 17.9143 66.4399 16.0813C66.4399 14.2483 65.8379 13.4963 64.1859 13.2613C61.7279 12.9123 60.3329 15.0563 61.3289 17.6513C61.6899 18.5933 62.8329 19.0933 64.1859 18.9013ZM118.44 30.0813C110.567 30.0813 107.224 21.6433 112.863 16.0043C116.536 12.3313 120.655 12.1613 124.294 15.5333C129.946 20.7713 126.2 30.0813 118.44 30.0813ZM104.56 23.9163C102.203 24.3703 100.682 22.0973 102.155 20.3223C102.761 19.5923 103.972 19.1333 104.848 19.3023C107.093 19.7343 106.86 23.4733 104.56 23.9163ZM117.518 24.7493C119.56 25.5333 122.392 22.7013 121.608 20.6593C121.275 19.7913 119.864 19.0813 118.471 19.0813C116.43 19.0813 115.94 19.5713 115.94 21.6123C115.94 23.0053 116.65 24.4163 117.518 24.7493ZM82.9399 82.0813V63.0813V44.0813H63.9399H44.9399V63.0813V82.0813H63.9399H82.9399ZM51.9399 63.0813C51.9399 56.9483 52.3729 53.0483 53.1399 52.2813C54.7739 50.6473 73.1059 50.6473 74.7399 52.2813C76.3739 53.9153 76.3739 72.2473 74.7399 73.8813C73.1059 75.5153 54.7739 75.5153 53.1399 73.8813C52.3729 73.1143 51.9399 69.2143 51.9399 63.0813ZM69.9399 69.0813V63.0813V57.0813H63.9399H57.9399V63.0813V69.0813H63.9399H69.9399ZM17.1859 65.9013C18.8379 65.6663 19.4399 64.9143 19.4399 63.0813C19.4399 61.2483 18.8379 60.4963 17.1859 60.2613C15.8329 60.0693 14.6899 60.5693 14.3289 61.5113C13.3329 64.1063 14.7279 66.2503 17.1859 65.9013ZM111.186 65.9013C112.838 65.6663 113.44 64.9143 113.44 63.0813C113.44 61.2483 112.838 60.4963 111.186 60.2613C108.728 59.9123 107.333 62.0563 108.329 64.6513C108.69 65.5933 109.833 66.0933 111.186 65.9013ZM9.16292 113.081C1.93392 113.081 -1.78209 103.712 3.39491 98.5363C5.08891 96.8413 6.96091 96.0813 9.43991 96.0813C14.0839 96.0813 17.9399 99.7253 17.9399 104.112C17.9399 108.258 13.2199 113.081 9.16292 113.081ZM9.47491 107.081C11.7169 107.081 12.0299 106.706 11.7559 104.34C11.3949 101.206 8.87592 100.248 6.98592 102.525C5.16092 104.725 6.44791 107.081 9.47491 107.081ZM22.4529 106.724C20.8949 106.127 20.4269 103.927 21.6069 102.748C22.7899 101.564 25.7099 102.039 26.2739 103.508C26.9749 105.337 24.4269 107.482 22.4529 106.724ZM64.1859 112.901C65.8379 112.666 66.4399 111.914 66.4399 110.081C66.4399 108.248 65.8379 107.496 64.1859 107.261C62.8329 107.069 61.6899 107.569 61.3289 108.511C60.3329 111.106 61.7279 113.25 64.1859 112.901ZM103.226 119.795C105.343 121.912 107.94 120.71 107.94 117.612C107.94 115.571 107.45 115.081 105.409 115.081C102.311 115.081 101.109 117.678 103.226 119.795Z"
     fill="#00FFC6"
     id="path2"
     style="fill:#00ffc6;fill-opacity:1" />
</svg>
