<svg width="127" height="127" viewBox="0 0 127 127" fill="none" xmlns="http://www.w3.org/2000/svg">
<path fill-rule="evenodd" clip-rule="evenodd" d="M30.8222 16.9833C31.5102 16.1012 38.8222 11.9882 47.0722 7.84525C55.3222 3.70125 62.6402 0.288249 63.3342 0.259249C65.6882 0.160249 96.3092 16.0782 96.9422 17.7292C97.2892 18.6312 97.5722 27.1023 97.5722 36.5543V53.7383L112.092 60.9773L126.612 68.2172L126.342 89.4622L126.072 110.706L111.072 118.412C102.822 122.651 94.8392 126.138 93.3312 126.162C91.8242 126.186 84.5502 123.195 77.1662 119.515L63.7402 112.824L49.6782 119.515C41.9432 123.195 34.5932 126.186 33.3442 126.162C32.0942 126.138 24.3222 122.651 16.0722 118.412L1.0722 110.706L0.802185 89.4622L0.532227 68.2172L15.0522 60.9773L29.5722 53.7383V36.1633C29.5722 23.6263 29.9302 18.1282 30.8222 16.9833ZM84.0322 18.9572L74.5522 14.1322C69.3382 11.4792 64.3972 9.30825 63.5722 9.30825C62.7472 9.30825 57.8062 11.4792 52.5922 14.1322L43.1122 18.9572L53.3422 24.0912L63.5722 29.2242L73.8022 24.0912L84.0322 18.9572ZM59.5722 36.2243L49.5902 31.2152C44.1002 28.4602 39.1502 26.2063 38.5902 26.2063C37.9502 26.2063 37.5722 31.2093 37.5722 39.6983V53.1893L48.5722 58.7063L59.5722 64.2232V50.2232V36.2243ZM89.5722 53.1893V39.6983C89.5722 29.5442 89.2632 26.2192 88.3222 26.2572C87.6352 26.2852 82.6842 28.5403 77.3222 31.2673L67.5722 36.2253V50.2243V64.2232L78.5722 58.7063L89.5722 53.1893ZM34.0722 80.9812L44.3352 75.8282L54.5982 70.6752L44.3202 65.5632L34.0422 60.4522L23.5572 65.7442L13.0722 71.0362L18.8882 73.6382C22.0862 75.0682 26.8112 77.3062 29.3882 78.6102L34.0722 80.9812ZM93.1022 80.9602L103.35 75.8172L113.598 70.6752L103.32 65.5632L93.0422 60.4522L82.7942 65.5952L72.5462 70.7372L82.8242 75.8492L93.1022 80.9602ZM29.5722 116.194V101.912V87.6302L19.0722 82.5312L8.5722 77.4322V91.5912V105.75L19.0722 110.972L29.5722 116.194ZM59.5722 105.789V91.4982C59.5722 83.6372 59.4602 77.2292 59.3222 77.2582C59.1842 77.2862 54.2352 79.7652 48.3222 82.7662L37.5722 88.2242V102.202V116.181L42.8222 113.833C45.7102 112.541 50.6592 110.203 53.8222 108.637L59.5722 105.789ZM89.5722 116.181V102.202V88.2232L78.5722 82.7062L67.5722 77.1892L67.6342 91.4482L67.6962 105.706L73.3842 108.576C76.5122 110.154 81.4342 112.511 84.3222 113.813L89.5722 116.181ZM118.572 105.75V91.4782C118.572 83.6282 118.46 77.2562 118.322 77.3172C118.184 77.3792 113.46 79.7212 107.822 82.5222L97.5722 87.6152V101.905V116.194L108.072 110.972L118.572 105.75Z" fill="#6C63FF"/>
</svg>
