<svg width="127" height="127" viewBox="0 0 127 127" fill="none" xmlns="http://www.w3.org/2000/svg">
<path fill-rule="evenodd" clip-rule="evenodd" d="M15.9594 14.2353C12.2074 10.4833 12.0124 6.39427 15.4114 2.72727C20.6724 -2.94873 29.9594 0.822268 29.9594 8.63427C29.9594 11.3943 29.2314 12.9593 26.9594 15.0813L23.9594 17.8833V31.4823V45.0813H31.4594H38.9594V42.0813V39.0813H49.4594H59.9594V31.9633C59.9594 25.4313 59.7044 24.5553 56.8634 21.3193C54.3444 18.4503 53.8784 17.2133 54.3624 14.6873C55.1214 10.7243 59.2394 7.08127 62.9594 7.08127C66.6794 7.08127 70.7974 10.7243 71.5564 14.6873C72.0404 17.2133 71.5744 18.4503 69.0554 21.3193C66.2144 24.5553 65.9594 25.4313 65.9594 31.9633V39.0813H70.4594H74.9594L74.9744 30.3313C74.9834 25.5193 75.3574 21.0013 75.8074 20.2933C76.4054 19.3503 79.2814 19.0823 86.5424 19.2933C95.9644 19.5673 96.4754 19.6933 96.7794 21.8313C97.0874 24.0053 96.8254 24.0813 89.0294 24.0813H80.9594V31.5813V39.0813H83.9594H86.9594V49.5813V60.0813H94.0774C100.609 60.0813 101.485 59.8263 104.721 56.9853C107.59 54.4663 108.827 54.0003 111.353 54.4843C115.316 55.2433 118.959 59.3613 118.959 63.0813C118.959 66.8013 115.316 70.9193 111.353 71.6783C108.827 72.1623 107.59 71.6963 104.721 69.1773C101.485 66.3363 100.609 66.0813 94.0774 66.0813H86.9594V70.5813V75.0813H95.7594C101.27 75.0813 105.007 75.5293 105.759 76.2813C106.591 77.1133 106.959 82.3083 106.959 93.2043V108.927L109.959 111.927C113.711 115.679 113.906 119.768 110.507 123.435C105.246 129.111 95.9594 125.34 95.9594 117.528C95.9594 114.768 96.6874 113.203 98.9594 111.081L101.959 108.279V94.6803V81.0813H94.4594H86.9594V84.0813V87.0813H76.4594H65.9594V94.1993C65.9594 100.731 66.2144 101.607 69.0554 104.843C71.5744 107.712 72.0404 108.949 71.5564 111.475C70.7974 115.438 66.6794 119.081 62.9594 119.081C59.2394 119.081 55.1214 115.438 54.3624 111.475C53.8784 108.949 54.3444 107.712 56.8634 104.843C59.7044 101.607 59.9594 100.731 59.9594 94.1993V87.0813H55.4594H50.9594V95.9593C50.9594 102.346 50.5664 105.162 49.5604 105.997C48.6574 106.747 44.8454 107.056 38.8104 106.87C29.9764 106.597 29.4414 106.457 29.1394 104.331C28.8314 102.157 29.0934 102.081 36.8894 102.081H44.9594V94.5813V87.0813H41.9594H38.9594V76.5813V66.0813H31.8414C25.3094 66.0813 24.4334 66.3363 21.1974 69.1773C18.3284 71.6963 17.0914 72.1623 14.5654 71.6783C10.6024 70.9193 6.95942 66.8013 6.95942 63.0813C6.95942 59.3613 10.6024 55.2433 14.5654 54.4843C17.0914 54.0003 18.3284 54.4663 21.1974 56.9853C24.4334 59.8263 25.3094 60.0813 31.8414 60.0813H38.9594V55.5813V51.0813H30.5414C25.9114 51.0813 21.4114 50.8083 20.5414 50.4743C19.1884 49.9553 18.9594 47.5073 18.9594 33.5513V17.2353L15.9594 14.2353ZM21.4904 11.0813C24.4364 11.0813 25.7274 8.71127 23.9484 6.56827C21.6084 3.74827 18.9594 4.90527 18.9594 8.74827C18.9594 10.5783 19.5054 11.0813 21.4904 11.0813ZM63.2054 18.9013C64.8574 18.6663 65.4594 17.9143 65.4594 16.0813C65.4594 14.2483 64.8574 13.4963 63.2054 13.2613C60.7474 12.9123 59.3524 15.0563 60.3484 17.6513C60.7094 18.5933 61.8524 19.0933 63.2054 18.9013ZM117.459 30.0813C109.586 30.0813 106.243 21.6433 111.882 16.0043C115.555 12.3313 119.674 12.1613 123.313 15.5333C128.965 20.7713 125.219 30.0813 117.459 30.0813ZM103.579 23.9163C101.222 24.3703 99.7014 22.0973 101.174 20.3223C101.78 19.5923 102.991 19.1333 103.867 19.3023C106.112 19.7343 105.879 23.4733 103.579 23.9163ZM116.537 24.7493C118.579 25.5333 121.411 22.7013 120.627 20.6593C120.294 19.7913 118.883 19.0813 117.49 19.0813C115.449 19.0813 114.959 19.5713 114.959 21.6123C114.959 23.0053 115.669 24.4163 116.537 24.7493ZM81.9594 82.0813V63.0813V44.0813H62.9594H43.9594V63.0813V82.0813H62.9594H81.9594ZM50.9594 63.0813C50.9594 56.9483 51.3924 53.0483 52.1594 52.2813C53.7934 50.6473 72.1254 50.6473 73.7594 52.2813C75.3934 53.9153 75.3934 72.2473 73.7594 73.8813C72.1254 75.5153 53.7934 75.5153 52.1594 73.8813C51.3924 73.1143 50.9594 69.2143 50.9594 63.0813ZM68.9594 69.0813V63.0813V57.0813H62.9594H56.9594V63.0813V69.0813H62.9594H68.9594ZM16.2054 65.9013C17.8574 65.6663 18.4594 64.9143 18.4594 63.0813C18.4594 61.2483 17.8574 60.4963 16.2054 60.2613C14.8524 60.0693 13.7094 60.5693 13.3484 61.5113C12.3524 64.1063 13.7474 66.2503 16.2054 65.9013ZM110.205 65.9013C111.857 65.6663 112.459 64.9143 112.459 63.0813C112.459 61.2483 111.857 60.4963 110.205 60.2613C107.747 59.9123 106.352 62.0563 107.348 64.6513C107.709 65.5933 108.852 66.0933 110.205 65.9013ZM8.18242 113.081C0.953425 113.081 -2.76258 103.712 2.41442 98.5363C4.10842 96.8413 5.98042 96.0813 8.45942 96.0813C13.1034 96.0813 16.9594 99.7253 16.9594 104.112C16.9594 108.258 12.2394 113.081 8.18242 113.081ZM8.49442 107.081C10.7364 107.081 11.0494 106.706 10.7754 104.34C10.4144 101.206 7.89542 100.248 6.00542 102.525C4.18042 104.725 5.46742 107.081 8.49442 107.081ZM21.4724 106.724C19.9144 106.127 19.4464 103.927 20.6264 102.748C21.8094 101.564 24.7294 102.039 25.2934 103.508C25.9944 105.337 23.4464 107.482 21.4724 106.724ZM63.2054 112.901C64.8574 112.666 65.4594 111.914 65.4594 110.081C65.4594 108.248 64.8574 107.496 63.2054 107.261C61.8524 107.069 60.7094 107.569 60.3484 108.511C59.3524 111.106 60.7474 113.25 63.2054 112.901ZM102.245 119.795C104.362 121.912 106.959 120.71 106.959 117.612C106.959 115.571 106.469 115.081 104.428 115.081C101.33 115.081 100.128 117.678 102.245 119.795Z" fill="#6C63FF"/>
</svg>
