<svg width="126" height="127" viewBox="0 0 126 127" fill="none" xmlns="http://www.w3.org/2000/svg">
<path fill-rule="evenodd" clip-rule="evenodd" d="M49.043 29.6626C49.043 8.8516 49.807 4.8806 54.343 2.1146C57.302 0.310598 59.566 0.169598 85.747 0.166598L113.962 0.162598L117.497 3.2666C120.762 6.1326 121.032 6.8026 121.032 12.0286C121.032 16.9386 121.33 17.8186 123.282 18.6756C125.4 19.6046 125.532 20.2516 125.532 29.6626C125.532 39.0736 125.4 39.7206 123.282 40.6496C121.345 41.4996 121.029 42.4026 121.01 47.1496C120.986 52.9746 119.439 55.9536 115.348 58.0456C113.89 58.7906 103.702 59.1626 84.733 59.1626C57.605 59.1626 56.182 59.0686 53.701 57.1176C49.822 54.0656 49.043 49.4736 49.043 29.6626ZM110.537 18.1626C113.02 18.1626 113.127 17.9416 112.837 13.4126L112.532 8.6626L85.826 8.3966C60.225 8.1416 59.077 8.2106 58.076 10.0806C56.515 12.9976 56.694 47.3186 58.282 49.4886C59.415 51.0376 62.005 51.1726 86.032 50.9296L112.532 50.6626L112.837 45.9126C113.127 41.3836 113.02 41.1626 110.537 41.1626C107.149 41.1626 102.561 38.7556 100.593 35.9456C98.585 33.0796 98.585 26.2456 100.593 23.3796C102.561 20.5696 107.149 18.1626 110.537 18.1626ZM20.253 43.2086C20.1 35.2586 20.204 28.1556 20.485 27.4236C20.875 26.4086 23.433 26.1596 31.264 26.3776C41.301 26.6566 41.54 26.7176 41.877 29.1066C42.362 32.5446 39.631 34.1626 33.341 34.1626H28.032V44.4716C28.032 55.9146 27.036 58.5806 22.976 58.0076L20.532 57.6626L20.253 43.2086ZM118.032 33.2676V29.7146C118.032 26.1996 117.987 26.1626 113.782 26.1776C108.446 26.1976 106.766 27.2426 107.195 30.2756C107.495 32.3986 108.113 32.6956 112.782 32.9646L118.032 33.2676ZM0.0319824 73.9626L3.43201 70.5626L6.83197 67.1626H35.709C60.789 67.1626 64.893 67.3766 66.915 68.7936C69.907 70.8886 72.032 76.0116 72.032 81.1306C72.032 83.3486 72.45 85.1626 72.961 85.1626C73.471 85.1626 74.596 85.8696 75.461 86.7336C77.702 88.9756 77.702 104.35 75.461 106.592C74.596 107.456 73.471 108.163 72.961 108.163C72.45 108.163 72.032 109.977 72.032 112.195C72.032 117.5 69.926 122.347 66.704 124.459C64.406 125.964 60.763 126.163 35.467 126.163H6.83197L3.43201 122.763L0.0319824 119.363V96.6626V73.9626ZM98.032 82.0966C98.032 76.5606 98.512 71.1336 99.099 70.0366C99.842 68.6496 100.983 68.1366 102.849 68.3526L105.532 68.6626V84.1626V99.6626H95.032C84.657 99.6626 84.528 99.6336 84.187 97.2186C83.702 93.7806 86.433 92.1626 92.723 92.1626H98.032V82.0966ZM64.032 81.7446C64.032 79.8646 63.759 77.6146 63.425 76.7446C62.892 75.3566 59.523 75.1626 35.894 75.1626C14.96 75.1626 8.86 75.4466 8.479 76.4406C8.209 77.1436 8.11101 86.7066 8.26001 97.6906L8.53198 117.663L34.909 117.93C53.532 118.118 61.69 117.862 62.659 117.057C63.414 116.431 64.032 114.173 64.032 112.041C64.032 108.558 63.774 108.163 61.5 108.163C54.753 108.163 49.032 102.886 49.032 96.6626C49.032 90.4546 54.531 85.1626 60.982 85.1626C63.787 85.1626 64.032 84.8886 64.032 81.7446ZM69.032 100.268V96.7146V93.1626H64.154C54.679 93.1626 54.432 99.4096 63.885 99.9646L69.032 100.268Z" fill="#969696"/>
</svg>
