<svg width="127" height="109" viewBox="0 0 127 109" fill="none" xmlns="http://www.w3.org/2000/svg">
<path fill-rule="evenodd" clip-rule="evenodd" d="M27.6014 10.1002C27.6014 6.19222 28.1243 4.39622 29.7753 2.63822L31.9504 0.324219H63.4614C94.4383 0.324219 95.0114 0.361218 97.2874 2.49822C99.1404 4.23922 99.6014 5.72622 99.6014 9.96022C99.6014 12.0524 99.4719 13.3387 99.9823 14.2769C100.937 16.0321 104.131 16.5692 114.601 18.8852C123.112 20.7672 126.601 23.2782 126.601 27.5212C126.601 32.7532 119.478 59.1572 117.903 59.7622C113.618 61.4062 113.661 58.3412 118.167 40.9152C120.129 33.3302 121.59 26.9802 121.414 26.8042C121.076 26.4662 101.143 21.3242 100.17 21.3242C98.1363 21.3242 100.357 25.9902 104.601 30.6342C107.351 33.6432 109.601 36.6902 109.601 37.4052C109.601 38.1202 108.364 42.5052 106.851 47.1502C104.824 53.3752 103.51 55.8642 101.851 56.6202C99.6364 57.6292 99.6014 57.9342 99.6014 76.0502C99.6014 86.3132 99.1624 95.2762 98.6094 96.3102C98.0634 97.3292 95.9254 98.7372 93.8594 99.4382L90.1014 100.713L95.6014 101.967C98.7874 102.694 101.473 102.849 101.986 102.337C102.473 101.851 104.274 95.9122 105.988 89.1392C108.744 78.2452 109.364 76.7872 111.357 76.5042C112.596 76.3282 113.834 76.7782 114.107 77.5042C114.913 79.6422 108.011 104.213 105.972 106.467C103.526 109.169 99.7893 108.796 79.3583 103.814L63.6164 99.9742L46.3583 104.162C26.8123 108.906 23.6804 109.173 21.0954 106.317C19.1034 104.116 0.630354 33.1662 0.612354 27.6472C0.597354 23.2852 4.00839 20.8422 12.8974 18.8452C23.1898 16.5323 26.3099 15.9976 27.2362 14.2799C27.728 13.3679 27.6014 12.1224 27.6014 10.1002ZM93.6014 94.3242V49.8242V5.32422H63.6014H33.6014V49.8242V94.3242H63.6014H93.6014ZM43.6014 23.4452L52.8514 17.9312C57.9394 14.8992 62.7084 12.3972 63.4504 12.3712C64.1924 12.3452 69.0304 14.8142 74.2004 17.8572L83.6014 23.3892L83.5863 34.1072C83.5773 40.0012 83.2403 45.3032 82.8363 45.8892C82.4324 46.4742 77.9344 49.3232 72.8404 52.2202L63.5794 57.4872L55.3404 52.7762C48.8511 49.0666 45.9393 47.5809 44.6376 45.211C43.455 43.0577 43.6014 40.1745 43.6014 34.2302V23.4452ZM77.6014 26.4132L70.7934 22.3692C67.0484 20.1442 63.7864 18.3332 63.5434 18.3442C63.3004 18.3542 60.1764 20.0652 56.6014 22.1442L50.1014 25.9262L49.8154 34.3962L49.5303 42.8672L55.9043 46.5952C59.4093 48.6462 62.8734 50.3242 63.6014 50.3242C64.3294 50.3242 67.7774 48.6562 71.2634 46.6162L77.6014 42.9082V34.6612V26.4132ZM22.6014 30.6342C25.3514 27.6252 27.6014 24.2992 27.6014 23.2432C27.6014 22.0352 26.9534 21.3702 25.8514 21.4472C24.0454 21.5742 6.3254 26.2992 5.8134 26.7912C5.2484 27.3322 23.9914 100.475 25.0744 101.956C26.0444 103.283 26.8423 103.297 31.6403 102.069L37.1014 100.672L33.3433 99.4182C31.2773 98.7282 29.1393 97.3292 28.5933 96.3102C28.0403 95.2762 27.6014 86.3132 27.6014 76.0502C27.6014 57.9342 27.5664 57.6292 25.3514 56.6202C23.6924 55.8642 22.3784 53.3752 20.3514 47.1502C18.8384 42.5052 17.6014 38.1202 17.6014 37.4052C17.6014 36.6902 19.8514 33.6432 22.6014 30.6342ZM27.1014 49.6742L27.4103 45.4732C27.5803 43.1622 27.5803 39.6552 27.4103 37.6802L27.1014 34.0892L25.1913 36.2122C23.3103 38.3032 23.3103 38.4252 25.1913 44.0052L27.1014 49.6742ZM101.647 44.8242C102.721 42.0742 103.6 39.3312 103.6 38.7292C103.601 38.1272 102.701 36.8192 101.601 35.8242C99.6174 34.0282 99.6014 34.0762 99.6484 41.9192L99.6954 49.8242L101.647 44.8242ZM37.8154 75.8882C37.6584 69.8742 37.7694 64.3282 38.0624 63.5642C39.1294 60.7852 42.1553 62.9352 44.7593 68.3242L47.4184 73.8242L47.7593 68.3242C48.0533 63.6052 48.3854 62.8242 50.1014 62.8242C51.9904 62.8242 52.1014 63.4912 52.1014 74.8242C52.1014 86.1492 51.9894 86.8242 50.1054 86.8242C48.7404 86.8242 47.2453 85.2422 45.3783 81.8242L42.6484 76.8242L42.6243 82.1442C42.6033 87.0832 42.4404 87.4402 40.3514 87.1442C38.1954 86.8372 38.0894 86.3682 37.8154 75.8882ZM57.6014 75.5602C57.6014 69.0142 57.9214 63.3372 58.3134 62.9462C58.7044 62.5542 61.2874 62.3672 64.0534 62.5292C68.0474 62.7632 69.1564 63.2112 69.4404 64.7042C69.8544 66.8812 68.0654 68.2872 64.8514 68.3092C63.2974 68.3192 62.6014 68.9232 62.6014 70.2612C62.6014 71.7152 63.4114 72.2752 65.8514 72.5112C68.3304 72.7502 69.1014 73.2992 69.1014 74.8242C69.1014 76.3432 68.3314 76.8982 65.9034 77.1332C62.8564 77.4282 62.6924 77.6632 62.4034 82.1332C62.1464 86.1262 61.7664 86.8722 59.8514 87.1442C57.6264 87.4602 57.6014 87.3322 57.6014 75.5602ZM77.0654 67.9042C74.6964 67.3102 73.7164 64.5432 75.3094 62.9502C75.6984 62.5612 78.9604 62.3732 82.5594 62.5332C88.4454 62.7952 89.1333 63.0462 89.4163 65.0392C89.6533 66.7032 89.1023 67.4112 87.2023 67.8882C84.7563 68.5022 84.6644 68.8212 84.3874 77.6732C84.1254 86.0622 83.9344 86.8242 82.1014 86.8242C80.2684 86.8242 80.0774 86.0622 79.8154 77.6732C79.5404 68.8872 79.4314 68.4982 77.0654 67.9042ZM115.227 70.6372C113.323 71.3682 111.195 68.8242 111.986 66.7632C112.321 65.8902 113.384 65.3272 114.348 65.5102C116.546 65.9292 117.222 69.8722 115.227 70.6372Z" fill="#00FFC6"/>
</svg>
