<svg width="111" height="111" viewBox="0 0 111 111" fill="none" xmlns="http://www.w3.org/2000/svg">
<path fill-rule="evenodd" clip-rule="evenodd" d="M0.601074 6.9626L4.0011 3.5626L7.40112 0.162598H35.7781C66.8281 0.162598 67.0151 0.195597 70.1071 6.1736C70.9291 7.7626 71.6011 10.4356 71.6011 12.1126C71.6011 15.0126 71.8011 15.1626 75.6671 15.1626C81.9071 15.1626 83.6001 16.5016 83.6091 21.4476C83.6171 25.3066 83.943 25.8396 87.472 27.7546C91.275 29.8186 91.3771 29.8216 94.9751 27.9756C99.8531 25.4726 101.325 26.4056 106.443 35.2456C111.605 44.1616 111.708 46.3116 107.101 49.0296C104.013 50.8516 103.601 51.5736 103.601 55.1626C103.601 58.7516 104.013 59.4736 107.101 61.2956C111.708 64.0126 111.612 66.2336 106.505 75.0906C101.444 83.8696 99.8691 84.8606 94.9751 82.3496C91.3771 80.5036 91.275 80.5066 87.472 82.5706C83.943 84.4856 83.6171 85.0186 83.6091 88.8776C83.6001 93.8236 81.9071 95.1626 75.6671 95.1626C71.8011 95.1626 71.6011 95.3126 71.6011 98.2126C71.6011 99.8896 70.9291 102.563 70.1071 104.152C67.0151 110.13 66.8281 110.163 35.7781 110.163H7.40112L4.0011 106.763L0.601074 103.363V55.1626V6.9626ZM36.0431 16.1626C33.3881 16.1626 27.6011 11.6456 27.6011 9.5736C27.6011 7.7266 11.626 7.5376 9.80103 9.3626C8.07403 11.0896 8.07403 99.2356 9.80103 100.963C10.671 101.833 17.9491 102.163 36.2661 102.163C60.2211 102.163 61.584 102.063 62.566 100.229C63.233 98.9806 63.6011 82.9816 63.6011 55.1626C63.6011 27.3436 63.233 11.3446 62.566 10.0966C61.661 8.4056 60.406 8.1626 52.566 8.1626C44.38 8.1626 43.6011 8.3306 43.6011 10.0896C43.6011 12.5186 39.0651 16.1626 36.0431 16.1626ZM80.864 34.0616C76.431 31.9886 74.6011 29.6996 74.6011 26.2286C74.6011 25.0586 73.9501 24.1626 73.1011 24.1626C71.9031 24.1626 71.6011 25.6506 71.6011 31.5516V38.9396L75.072 39.5916C79.723 40.4636 85.0871 45.7156 86.6481 50.9256C87.6741 54.3496 87.6741 55.9756 86.6481 59.3996C85.0871 64.6096 79.723 69.8616 75.072 70.7336L71.6011 71.3856V78.7736C71.6011 84.6746 71.9031 86.1626 73.1011 86.1626C73.9951 86.1626 74.6011 85.2426 74.6011 83.8856C74.6011 81.1746 77.203 77.1626 78.962 77.1626C79.648 77.1626 82.3381 75.8126 84.9401 74.1626C90.1971 70.8286 92.1881 70.5356 95.0211 72.6786C96.7781 74.0086 97.1011 73.8686 98.8251 71.0346C99.8611 69.3306 100.572 67.8386 100.405 67.7186C100.238 67.5976 98.9761 66.7406 97.6011 65.8126C95.2601 64.2326 95.0941 63.5506 94.9921 55.1176C94.8841 46.2126 94.9161 46.0896 97.7511 44.4146C99.3291 43.4826 100.489 42.4826 100.328 42.1916C100.168 41.9006 99.4321 40.4596 98.6931 38.9886C97.3611 36.3376 97.3211 36.3286 93.9321 37.9446C90.7421 39.4656 90.3361 39.4566 87.8081 37.8086C86.3191 36.8376 83.194 35.1516 80.864 34.0616ZM11.6011 55.1626C11.6011 54.4956 14.827 50.6226 18.77 46.5556C26.287 38.8036 29.586 37.3966 31.566 41.0966C32.0583 42.0163 32.3928 42.6181 32.4134 43.2305C32.4547 44.462 31.2262 45.7361 27.4561 49.7226L22.311 55.1626L27.4561 60.6026C30.2861 63.5946 32.6011 66.4876 32.6011 67.0316C32.6011 68.6346 29.6011 71.1626 27.6991 71.1626C25.7551 71.1626 11.6011 57.0946 11.6011 55.1626ZM44.5341 50.1796C39.4531 44.3366 38.729 42.4346 40.801 40.3626C43.197 37.9666 45.8831 39.2966 52.6771 46.2396C57.2561 50.9206 59.6011 54.1096 59.6011 55.6586C59.6011 57.2896 57.412 59.9986 52.39 64.5816C45.009 71.3186 42.7761 72.2836 40.6121 69.6756C38.6301 67.2886 40.2711 63.5376 45.0421 59.5496L49.467 55.8506L44.5341 50.1796ZM76.6011 60.1626C78.9941 57.7696 79.1891 53.4476 77.0441 50.3856C76.1881 49.1626 74.6131 48.1626 73.5441 48.1626C71.8051 48.1626 71.6011 48.8976 71.6011 55.1626C71.6011 62.8406 72.7621 64.0016 76.6011 60.1626Z" fill="#969696"/>
</svg>
