<svg width="126" height="125" viewBox="0 0 126 125" fill="none" xmlns="http://www.w3.org/2000/svg">
<path fill-rule="evenodd" clip-rule="evenodd" d="M28.6473 40.9126C28.6853 5.3786 28.8283 4.27059 33.7223 1.55859C37.3173 -0.434406 88.6073 -0.408405 92.4673 1.58759C96.5063 3.67659 97.6123 7.1426 97.6123 17.7096V27.1626H100.612C103.356 27.1626 103.612 26.8726 103.612 23.7696C103.612 17.3366 106.168 18.2596 116.302 28.3516C121.422 33.4506 125.612 38.0916 125.612 38.6636C125.612 39.2356 121.621 43.6766 116.743 48.5316C107.033 58.1966 104.359 59.2036 103.799 53.4046C103.523 50.5556 103.129 50.1626 100.549 50.1626H97.6123V83.1156C97.6123 104.68 97.2373 116.892 96.5273 118.451C94.0803 123.821 92.0823 124.163 63.1123 124.163C41.9591 124.163 33.7752 124.202 30.6093 120.235C28.5809 117.694 28.6123 113.509 28.6123 106.616V97.1626H25.6123C22.8683 97.1626 22.6123 97.4526 22.6123 100.556C22.6123 106.989 20.0564 106.066 9.92236 95.9736C4.80236 90.8746 0.612305 86.2336 0.612305 85.6616C0.612305 85.0896 4.60332 80.6486 9.48132 75.7936C19.1913 66.1286 21.8653 65.1216 22.4253 70.9206C22.7013 73.7696 23.0953 74.1626 25.6753 74.1626H28.6123L28.6473 40.9126ZM91.6123 12.8856C91.6123 11.6326 90.9113 9.60759 90.0553 8.38559C88.5163 6.18759 88.2123 6.16259 63.1123 6.16259C38.0123 6.16259 37.7083 6.18759 36.1693 8.38559C35.3133 9.60759 34.6123 11.6326 34.6123 12.8856V15.1626H63.1123H91.6123V12.8856ZM86.4653 27.3606C91.1773 27.0836 91.6123 26.8516 91.6123 24.6106V22.1626H63.1123H34.6123V48.1626V74.1626H38.9213C43.9563 74.1626 46.9833 75.9966 46.4583 78.7286C46.1163 80.5146 45.0153 80.6836 32.1083 80.9426C20.6363 81.1716 17.9334 80.9546 17.0374 79.7296C16.1164 78.4686 15.3752 78.8216 12.2762 81.9946L8.6073 85.7516L12.4493 89.5036C15.8253 92.8006 16.4463 93.0676 17.5743 91.7086C19.4813 89.4096 43.7703 89.4426 45.6823 91.7466C47.9753 94.5106 45.5773 96.6236 39.7593 96.9646C35.0473 97.2416 34.6123 97.4736 34.6123 99.7146V102.163H63.1123H91.6123V76.1626V50.1626H87.3033C82.2683 50.1626 79.2414 48.3286 79.7664 45.5966C80.1084 43.8106 81.2093 43.6416 94.1163 43.3826C105.588 43.1536 108.291 43.3706 109.187 44.5956C110.108 45.8566 110.849 45.5036 113.948 42.3306L117.617 38.5736L113.775 34.8216C110.399 31.5246 109.778 31.2576 108.65 32.6166C106.743 34.9156 82.4544 34.8826 80.5424 32.5786C78.2494 29.8146 80.6473 27.7016 86.4653 27.3606ZM59.6123 40.2376C59.6123 38.7666 60.1523 37.0226 60.8123 36.3626C61.4723 35.7026 62.5073 35.1626 63.1123 35.1626C65.0513 35.1626 66.6123 37.4816 66.6123 40.3626C66.6123 42.7016 67.0343 43.1626 69.1783 43.1626C73.0373 43.1626 75.6243 44.9476 77.1873 48.6876C78.9293 52.8566 78.1433 55.1626 74.9803 55.1626C73.3214 55.1626 72.2643 54.3776 71.6123 52.6626C70.7253 50.3296 70.2023 50.1626 63.7593 50.1626C56.0983 50.1626 53.9693 51.4656 54.9893 55.5306C55.6953 58.3426 58.0333 59.1306 65.7273 59.1486C69.8553 59.1586 72.0314 59.7046 73.9434 61.2076C76.8584 63.5016 78.6343 68.5946 77.8853 72.5126C77.1993 76.1006 73.2643 80.0826 69.6973 80.7956C67.2793 81.2796 66.6654 81.9586 66.4174 84.4256C65.7944 90.6226 59.6123 90.2716 59.6123 84.0406C59.6123 81.6176 59.2063 81.1626 57.0463 81.1626C53.1873 81.1626 50.6004 79.3776 49.0374 75.6376C47.2954 71.4686 48.0813 69.1626 51.2443 69.1626C52.9033 69.1626 53.9603 69.9476 54.6123 71.6626C55.4993 73.9956 56.0223 74.1626 62.4653 74.1626C70.1263 74.1626 72.2553 72.8596 71.2354 68.7946C70.5294 65.9826 68.1913 65.1946 60.4973 65.1766C53.8373 65.1596 50.1684 62.8356 48.7614 57.7416C46.9524 51.1896 50.5023 44.7346 56.5823 43.5186C59.0493 43.0256 59.6123 42.4156 59.6123 40.2376ZM90.0553 115.94C90.9113 114.718 91.6123 112.693 91.6123 111.44V109.163H63.1123H34.6123V111.44C34.6123 112.693 35.3133 114.718 36.1693 115.94C37.7083 118.138 38.0123 118.163 63.1123 118.163C88.2123 118.163 88.5163 118.138 90.0553 115.94Z" fill="#00FFC6"/>
</svg>
