<svg width="126" height="127" viewBox="0 0 126 127" fill="none" xmlns="http://www.w3.org/2000/svg">
<path fill-rule="evenodd" clip-rule="evenodd" d="M39.9071 23.3698C49.9141 17.5578 63.0281 9.9578 69.0501 6.4818C86.7701 -3.7452 88.7771 -2.9422 101.535 19.4868C108.616 31.9368 110.173 34.0308 113.409 35.4578C119.248 38.0338 120.601 41.3148 120.601 52.8928C120.601 62.1828 120.76 62.9638 123.101 65.1628C125.517 67.4318 125.601 67.9458 125.601 80.3848C125.601 92.8318 125.518 93.3348 123.101 95.5748C120.766 97.7398 120.601 98.5308 120.601 107.577C120.601 118.148 119.461 121.714 115.187 124.515C112.932 125.993 107.285 126.163 60.5871 126.163C4.91707 126.163 4.24707 126.107 1.63107 121.218C0.975073 119.993 0.601074 105.115 0.601074 80.2448V41.1948L3.49707 37.9528C6.20307 34.9248 6.89507 34.6868 14.0531 34.3258L21.7141 33.9388L39.9071 23.3698ZM87.4021 8.6958C87.7541 8.3428 87.3811 7.6358 86.5721 7.1238C85.7631 6.6118 84.4261 6.1888 83.6011 6.1838C82.7761 6.1788 73.7761 11.0428 63.6011 16.9938C53.4261 22.9448 42.6261 29.2328 39.6011 30.9658L34.1011 34.1188L39.1011 34.1358C43.7001 34.1518 45.8131 33.1568 65.4311 21.7448C77.1621 14.9208 87.0491 9.0478 87.4021 8.6958ZM79.9191 26.5628C87.1691 22.3198 93.2591 18.7228 93.4531 18.5698C93.6471 18.4168 93.1791 17.3978 92.4131 16.3048C91.0701 14.3868 90.4351 14.6558 74.2621 23.9898L57.5031 33.6628L62.1201 33.9708C66.3211 34.2498 67.9261 33.5818 79.9191 26.5628ZM102.6 34.1628L99.8511 29.1768C98.3381 26.4348 96.8761 24.2228 96.6011 24.2598C96.0911 24.3298 92.6421 26.3648 84.6011 31.3408L80.1011 34.1248L91.3511 34.1438L102.6 34.1628ZM114.445 53.2108C114.223 46.7928 113.64 42.7978 112.802 41.9608C110.904 40.0648 13.2511 39.5748 9.60107 41.4418L7.10107 42.7218L6.83707 80.1918C6.59507 114.531 6.71608 117.767 8.27808 118.913C9.58908 119.874 21.6211 120.163 60.2921 120.163C101.068 120.163 111.469 120.75 113.972 116.587C115.127 114.667 114.601 111.736 114.601 107.271V98.3788L103.275 98.0188C93.1861 97.6988 91.5551 97.3888 88.3291 95.1788C79.3171 89.0028 77.5061 77.1828 84.3311 69.0718C88.3621 64.2808 92.1151 63.1628 104.163 63.1628H114.788L114.445 53.2108ZM119.669 91.1628L119.385 80.4128L119.101 69.6628L107.101 69.4608C93.9031 69.2388 91.8931 69.7048 88.7391 73.7148C85.3331 78.0448 85.8311 83.5928 90.0011 87.7628L93.4011 91.1628H106.535H119.669ZM97.8731 86.1628C92.1021 86.1628 89.2851 78.8988 93.8241 75.7198C95.0461 74.8638 96.8461 74.1628 97.8241 74.1628C100.116 74.1628 103.601 77.6478 103.601 79.9398C103.601 82.9828 100.674 86.1628 97.8731 86.1628Z" fill="#969696"/>
</svg>
