<svg width="116" height="188" viewBox="0 0 116 188" fill="none" xmlns="http://www.w3.org/2000/svg">
<path d="M57.8897 0C57.481 0 -0.121768 84.2099 0.111374 84.4666C0.205495 84.5703 23.6948 72.243 57.4797 54.3588C57.9583 54.1053 66.7057 58.589 86.9297 69.4543C118.994 86.6805 115.92 85.0482 115.92 84.8523C115.92 84.3632 58.2241 0 57.8897 0ZM58.2192 63.724L30.2041 78.6886C14.7958 86.9192 2.34851 93.8222 2.54276 94.0277C2.73682 94.233 15.2228 100.966 30.2897 108.99C45.3567 117.013 57.9918 123.536 58.368 123.485C59.2681 123.363 113.754 93.7764 113.517 93.5387C113.416 93.438 100.933 86.688 85.7767 78.5395L58.2192 63.724ZM0.0317859 102.877C-0.038251 102.902 0.00963932 103.029 0.153865 103.264C0.479828 103.793 39.4961 161.286 52.9249 181.025C57.0856 187.141 58.1128 188.393 58.5662 187.905C58.871 187.576 63.6988 180.517 69.2951 172.217C86.3004 146.996 115.279 103.902 115.689 103.225C115.901 102.874 114.595 103.397 112.787 104.385C96.8555 113.09 58.5511 133.527 58.1657 133.527C57.8977 133.527 45.0249 126.776 29.5598 118.526C14.0947 110.275 1.0688 103.331 0.613175 103.095C0.288874 102.926 0.101684 102.851 0.0317859 102.877Z" fill="white"/>
</svg>
