<?xml version="1.0" standalone="no"?>
<!DOCTYPE svg PUBLIC "-//W3C//DTD SVG 20010904//EN"
 "http://www.w3.org/TR/2001/REC-SVG-20010904/DTD/svg10.dtd">
<svg version="1.0" xmlns="http://www.w3.org/2000/svg"
 width="500.000000pt" height="500.000000pt" viewBox="0 0 500.000000 500.000000"
 preserveAspectRatio="xMidYMid meet">

<g transform="translate(0.000000,500.000000) scale(0.100000,-0.100000)"
fill="#000000" stroke="none">
<path d="M2950 4923 c-14 -9 -36 -26 -50 -38 -14 -12 -37 -30 -52 -39 -26 -17
-27 -17 -43 13 -8 17 -22 31 -30 31 -43 0 -175 -170 -161 -207 5 -12 16 -14
55 -9 44 6 50 4 56 -14 3 -11 14 -24 24 -29 22 -12 53 6 153 88 96 77 123 108
143 155 16 38 16 41 -1 53 -24 18 -65 16 -94 -4z m-16 -104 c-49 -51 -145
-129 -157 -129 -4 0 -7 14 -7 31 0 29 -2 31 -27 27 -16 -3 -37 -9 -47 -13 -16
-7 -14 -2 9 29 36 47 65 64 65 39 1 -44 15 -48 72 -20 29 15 71 42 93 61 58
49 57 34 -1 -25z"/>
<path d="M2369 4737 c-51 -34 -79 -91 -79 -159 l0 -58 -52 -26 c-29 -14 -61
-33 -70 -42 -27 -23 -23 -81 10 -133 32 -50 53 -104 45 -113 -4 -3 -35 -6 -70
-6 -35 0 -127 -9 -206 -20 -78 -11 -213 -26 -300 -35 -231 -22 -369 -57 -424
-108 -26 -24 -30 -76 -12 -171 l10 -58 -32 -27 c-26 -22 -32 -36 -37 -80 -4
-43 -1 -58 17 -82 23 -30 27 -92 72 -979 11 -202 14 -227 32 -247 27 -30 151
-76 273 -102 126 -27 199 -47 247 -68 l37 -16 2 -84 c4 -171 8 -154 -37 -168
-124 -37 -226 -122 -278 -233 -30 -62 -32 -75 -32 -172 0 -93 3 -110 24 -145
59 -97 160 -168 262 -181 41 -6 48 -10 53 -35 6 -32 17 -262 19 -417 2 -90 5
-106 22 -120 14 -12 19 -26 17 -51 -2 -23 3 -43 17 -61 17 -24 18 -32 9 -57
-9 -23 -8 -36 4 -60 13 -25 13 -33 1 -48 -17 -25 -16 -73 3 -110 15 -29 15
-29 -31 -72 -43 -39 -46 -45 -43 -85 3 -40 5 -43 48 -59 83 -30 534 -55 589
-32 18 7 32 6 54 -5 24 -12 54 -13 158 -8 227 13 404 33 437 50 58 30 52 77
-16 149 -32 33 -35 40 -24 57 15 24 16 94 1 121 -7 15 -7 24 2 35 7 8 10 31 7
57 -4 30 1 53 14 77 11 22 16 45 13 62 -5 19 0 33 14 47 19 19 21 33 21 144 0
67 5 188 12 269 l11 146 60 11 c117 21 204 82 253 179 26 50 29 67 29 147 0
81 -4 97 -34 163 -25 53 -50 88 -91 126 -55 51 -189 126 -224 126 -15 0 -16 5
-10 32 4 18 10 71 13 118 l6 85 120 12 c150 16 345 64 405 101 64 40 70 56 70
212 0 74 9 250 20 390 20 260 25 599 10 700 -7 51 -6 56 16 73 36 28 33 80 -8
117 -17 16 -44 32 -60 35 -26 6 -28 10 -28 58 0 29 -5 81 -10 116 -12 82 -41
114 -128 141 -144 45 -268 54 -745 54 l-448 1 -25 60 c-44 103 -45 101 26 64
103 -53 212 -50 226 8 4 14 -1 52 -10 84 -9 32 -16 82 -16 110 0 46 -4 54 -36
82 -20 18 -47 51 -61 75 -40 67 -76 78 -134 39z m97 -79 c15 -29 15 -34 0 -65
-27 -56 -53 -28 -55 60 -1 31 2 37 19 37 12 0 26 -12 36 -32z m-27 -212 c12
-20 37 -47 54 -62 l32 -26 -35 6 c-44 8 -98 51 -123 99 -20 38 -26 124 -12
168 7 20 12 11 35 -63 15 -47 37 -102 49 -122z m115 122 c15 -25 -38 -80 -74
-76 -32 4 -40 37 -11 45 12 3 21 13 21 22 0 10 3 21 7 25 12 12 45 2 57 -16z
m16 -124 c23 -61 0 -72 -52 -25 l-33 30 25 10 c39 15 50 13 60 -15z m-244 4
c7 -10 -2 -20 -41 -43 -18 -11 -15 -22 48 -166 l16 -37 -28 -4 c-27 -4 -30 0
-64 81 -54 130 -54 132 -10 158 43 25 68 29 79 11z m854 -298 c281 -18 430
-44 463 -82 12 -14 17 -38 17 -82 l0 -61 -437 3 c-376 3 -776 -5 -1143 -23
-52 -3 -142 -7 -200 -10 -153 -8 -529 -34 -571 -40 -35 -5 -37 -4 -43 33 -13
79 -8 108 21 121 60 27 279 73 438 91 198 22 482 49 575 53 165 8 732 6 880
-3z m458 -265 c17 -4 22 -12 20 -28 -3 -20 -10 -23 -78 -28 -41 -4 -266 -7
-500 -8 -234 0 -555 -7 -715 -13 -159 -7 -447 -12 -640 -10 -192 1 -372 2
-400 2 -33 0 -46 3 -39 10 14 14 183 28 499 40 149 6 322 15 385 21 63 6 212
14 330 18 239 7 1102 4 1138 -4z m147 -117 c13 -13 -6 -46 -31 -52 -18 -5 -24
-12 -20 -24 3 -9 10 -89 17 -177 11 -163 9 -264 -16 -645 -8 -118 -17 -274
-20 -347 l-7 -131 -47 -20 c-115 -50 -280 -85 -521 -112 -352 -40 -665 -37
-1095 10 -331 36 -535 80 -716 154 -18 8 -21 47 -39 461 -17 392 -39 684 -57
729 -9 23 -16 57 -17 76 -2 61 20 64 464 67 212 2 486 6 610 10 279 10 1486
10 1495 1z m-1517 -1564 c255 -15 699 -14 805 2 l37 6 0 -51 c0 -57 9 -51
-135 -83 -128 -28 -692 -9 -1002 33 l-81 12 -5 41 c-2 22 -2 44 0 49 6 11 83
9 381 -9z m-128 -159 c74 -8 225 -18 335 -22 163 -6 189 -9 140 -15 -33 -4
-82 -17 -109 -29 -45 -19 -67 -21 -270 -20 -255 1 -314 11 -329 55 -16 47 -3
60 51 52 26 -4 108 -13 182 -21z m950 -13 c0 -10 -11 -29 -24 -41 l-25 -23
-124 21 c-69 12 -145 22 -168 22 -24 1 31 7 123 14 92 8 176 16 185 18 31 8
33 7 33 -11z m-180 -93 c356 -42 523 -153 538 -358 6 -85 -16 -155 -61 -199
-73 -71 -273 -104 -511 -85 -76 7 -139 13 -141 15 -1 2 0 31 3 65 l4 61 99 7
c54 4 134 4 178 0 100 -9 156 12 196 74 40 59 20 80 -38 39 l-30 -22 5 41 c3
22 2 47 -3 54 -14 23 -30 -4 -37 -62 l-7 -54 -125 -6 c-69 -3 -151 -9 -182
-13 -54 -7 -56 -6 -62 19 -10 38 -76 99 -121 111 -22 6 -79 11 -126 10 -114
-3 -173 -31 -208 -100 -22 -45 -26 -47 -55 -42 -16 4 -96 9 -177 13 l-147 6
-5 50 c-11 85 -53 111 -45 27 3 -27 3 -50 1 -50 -2 0 -17 10 -33 22 -41 30
-57 14 -36 -36 12 -28 27 -42 63 -59 43 -19 65 -22 208 -23 241 -1 225 2 225
-36 0 -18 -3 -49 -6 -69 l-6 -37 -172 -6 c-243 -10 -385 12 -465 72 -64 48
-94 166 -67 269 33 133 105 196 278 248 74 22 267 37 365 29 82 -6 82 -6 93
-39 20 -60 29 -63 183 -56 154 7 167 13 167 77 0 64 4 67 94 59 45 -3 119 -11
166 -16z m-312 -31 l3 -38 -39 0 c-44 0 -59 18 -42 50 12 22 28 29 55 27 15
-2 21 -10 23 -39z m-138 3 c0 -5 2 -15 5 -23 4 -10 -10 -16 -51 -24 -54 -10
-56 -9 -65 14 -15 39 -11 42 51 42 33 0 60 -4 60 -9z m4 -353 c3 -13 6 -101 6
-196 l0 -172 -25 -12 c-34 -15 -83 0 -109 35 -18 25 -21 45 -24 150 -3 140 3
160 63 194 52 29 81 30 89 1z m149 8 c18 -7 43 -26 57 -40 24 -26 25 -32 24
-152 -1 -108 -4 -129 -21 -152 -27 -36 -67 -55 -103 -47 -28 6 -28 8 -35 93
-7 83 0 286 11 304 7 12 30 10 67 -6z m-319 -380 c64 -66 109 -83 166 -60 29
12 43 13 59 5 60 -32 169 6 211 74 l22 35 180 -2 180 -1 -7 -101 c-4 -56 -10
-175 -14 -265 l-6 -165 -90 -21 c-112 -26 -131 -36 -146 -80 -19 -51 -52 -49
-68 5 -8 27 -19 41 -34 45 -37 9 -459 11 -499 2 -29 -6 -39 -14 -44 -33 -8
-30 -40 -50 -58 -35 -7 6 -18 28 -25 50 -14 47 -44 60 -131 58 -30 -1 -60 2
-66 5 -7 5 -13 91 -18 245 -3 131 -9 250 -12 264 l-6 26 177 1 177 2 52 -54z
m-240 -546 c20 -7 26 -17 26 -38 0 -49 22 -67 80 -67 43 0 55 4 71 25 10 14
24 31 29 38 22 25 121 10 142 -22 10 -15 10 -66 0 -66 -5 0 -16 -6 -26 -13
-18 -13 -17 -16 14 -47 l33 -34 -31 -13 c-46 -19 -47 -31 -6 -69 32 -28 37
-38 28 -52 -20 -32 -80 -44 -162 -32 -41 7 -104 11 -141 9 -85 -3 -141 18
-141 55 0 20 9 30 40 46 22 11 40 24 40 28 0 15 -17 31 -43 41 -35 14 -34 32
3 53 39 22 38 43 -2 64 -56 28 -59 33 -43 64 13 25 26 34 57 39 4 0 18 -3 32
-9z m994 -48 c3 -18 -5 -26 -43 -42 -55 -23 -57 -47 -8 -70 18 -8 33 -19 33
-23 0 -4 -16 -17 -36 -29 -44 -26 -43 -57 1 -71 59 -19 59 -46 2 -85 -40 -27
-52 -29 -163 -35 -135 -6 -209 4 -239 33 l-20 21 38 35 c40 38 45 66 12 72
-37 7 -40 21 -9 53 l29 31 -27 22 c-51 40 -24 92 54 102 46 6 47 6 62 -29 26
-63 119 -90 150 -45 9 12 16 32 16 45 0 31 27 43 90 40 49 -2 55 -5 58 -25z
m-511 -28 c-8 -26 -8 -44 1 -67 8 -21 8 -35 2 -41 -14 -14 -12 -63 3 -77 10
-10 9 -20 -7 -52 -17 -34 -18 -44 -7 -74 11 -30 11 -37 -4 -53 -19 -21 -41
-17 -56 12 -8 14 -8 23 0 31 16 16 14 69 -4 94 -13 19 -13 24 0 50 8 15 12 37
9 47 -4 11 -7 52 -8 93 l-1 73 42 0 41 0 -11 -36z m-146 -381 c14 -6 33 -19
42 -28 21 -20 22 -61 2 -68 -8 -4 -124 0 -257 8 -134 8 -246 15 -250 15 -30 0
19 54 72 79 30 14 61 15 200 10 91 -3 177 -10 191 -16z m510 0 c118 -6 128 -8
160 -34 19 -15 31 -30 28 -33 -8 -8 -494 -35 -519 -29 -34 9 -27 59 13 83 36
22 96 25 318 13z"/>
<path d="M3451 3664 c-26 -33 -26 -49 0 -75 14 -14 30 -19 52 -17 28 3 33 8
41 41 12 48 0 71 -41 75 -23 2 -36 -3 -52 -24z m69 -32 c0 -26 -10 -33 -31
-21 -28 14 -24 39 6 39 18 0 25 -5 25 -18z"/>
<path d="M3617 3662 c-9 -10 -17 -33 -17 -50 0 -28 4 -32 37 -38 51 -10 68 4
68 57 0 43 -1 44 -36 47 -24 2 -40 -3 -52 -16z m61 -40 c-2 -8 -7 -17 -13 -19
-17 -5 -38 14 -32 30 8 20 49 10 45 -11z"/>
<path d="M1363 3650 c-24 -10 -27 -27 -17 -92 l7 -38 53 0 c42 0 55 4 64 19
14 27 13 86 -2 99 -19 16 -80 23 -105 12z m82 -50 c14 -22 -6 -50 -36 -50 -33
0 -48 22 -29 45 14 17 56 20 65 5z"/>
<path d="M1655 3633 c-51 -13 -61 -59 -19 -92 52 -41 104 -18 104 44 0 47 -28
62 -85 48z m51 -62 c-4 -6 -18 -11 -32 -11 -31 0 -32 27 -1 32 26 5 42 -6 33
-21z"/>
<path d="M3232 3500 c-105 -16 -158 -55 -213 -160 -34 -64 -34 -186 -1 -250
35 -66 86 -115 155 -145 52 -24 69 -27 131 -23 166 11 281 131 281 293 0 122
-50 196 -177 261 -69 35 -85 37 -176 24z m163 -75 c151 -73 200 -266 95 -374
-52 -54 -92 -73 -167 -79 -78 -6 -134 9 -195 54 -64 46 -88 95 -88 182 0 111
61 205 155 240 47 18 139 7 200 -23z"/>
<path d="M3190 3390 c-149 -80 -109 -351 52 -354 43 -1 43 -1 46 37 4 49 18
47 32 -4 11 -40 12 -41 47 -36 77 13 117 67 117 157 0 98 -43 178 -111 206
-47 20 -141 17 -183 -6z m172 -31 c68 -44 108 -136 94 -213 -10 -53 -106 -115
-106 -68 0 29 -29 62 -55 62 -30 0 -49 -32 -40 -67 5 -22 3 -24 -17 -17 -57
18 -93 63 -104 132 -23 148 111 248 228 171z"/>
<path d="M1997 3490 c-79 -20 -136 -68 -179 -150 -19 -37 -23 -60 -23 -130 0
-76 4 -93 33 -152 58 -118 163 -176 297 -166 111 9 193 65 250 170 24 45 29
64 29 128 0 69 -4 83 -36 141 -44 78 -78 111 -143 140 -56 25 -167 34 -228 19z
m215 -68 c160 -75 198 -294 71 -414 -72 -69 -206 -90 -297 -47 -69 32 -132
107 -147 175 -24 108 18 227 99 278 51 32 65 35 152 32 53 -1 89 -9 122 -24z"/>
<path d="M2015 3395 c-59 -21 -101 -72 -115 -138 -26 -128 35 -235 140 -245
l50 -5 0 41 c0 56 15 61 32 10 16 -52 45 -60 106 -29 93 48 98 216 9 309 -18
19 -44 40 -58 47 -42 22 -119 27 -164 10z m165 -52 c50 -31 99 -113 100 -165
0 -69 -54 -138 -108 -138 -16 0 -21 8 -24 32 -2 25 -9 35 -30 42 -36 13 -58
-6 -58 -50 0 -39 -10 -42 -56 -14 -70 44 -97 172 -53 250 20 35 55 58 109 73
22 5 91 -12 120 -30z"/>
<path d="M1628 3103 c-10 -2 -18 -8 -18 -13 0 -17 21 -22 61 -15 33 6 38 9 28
21 -11 14 -37 16 -71 7z"/>
<path d="M2812 3078 c-14 -14 -16 -67 -2 -102 6 -16 20 -28 37 -31 90 -20 90
-40 -1 -55 -58 -9 -86 -23 -86 -43 0 -14 106 -2 152 17 67 28 60 78 -13 105
-24 9 -45 23 -46 31 -12 91 -17 102 -41 78z"/>
<path d="M1620 2986 c-10 -13 -9 -17 5 -22 19 -8 45 4 48 21 3 17 -39 17 -53
1z"/>
<path d="M3540 2935 c0 -19 39 -40 52 -27 6 6 3 15 -7 26 -20 20 -45 21 -45 1z"/>
<path d="M3500 2886 c0 -16 26 -46 41 -46 12 0 11 17 -1 41 -12 22 -40 26 -40
5z"/>
<path d="M2760 2761 c-105 -32 -190 -117 -190 -190 0 -27 21 -33 134 -37 85
-3 101 -1 112 14 13 16 13 16 14 0 0 -11 8 -18 20 -18 24 0 26 13 5 34 -9 8
-11 17 -5 21 5 3 7 33 3 72 l-6 66 29 -7 c40 -9 75 -37 98 -75 25 -43 16 -61
-32 -61 -46 0 -52 -4 -44 -32 4 -17 11 -19 45 -15 45 6 90 35 95 61 10 48 -53
137 -115 163 -35 14 -122 16 -163 4z m50 -115 l0 -64 -58 -4 c-32 -2 -76 -2
-99 0 -42 4 -42 4 -29 31 29 54 102 99 164 101 21 0 22 -4 22 -64z"/>
<path d="M1370 2561 c-5 -11 -10 -34 -10 -51 0 -26 6 -33 36 -46 57 -24 74
-12 74 51 0 57 -7 65 -60 65 -19 0 -33 -7 -40 -19z m68 -50 c3 -30 2 -32 -17
-21 -20 10 -28 40 -14 54 14 13 28 -1 31 -33z"/>
<path d="M1538 2499 c-4 -62 5 -76 54 -84 33 -6 39 -4 49 18 23 51 -16 117
-70 117 -28 0 -29 -2 -33 -51z m68 -14 c8 -31 3 -38 -20 -29 -20 8 -22 54 -1
54 8 0 17 -11 21 -25z"/>
<path d="M3593 2534 c-8 -3 -13 -24 -13 -50 0 -49 13 -61 56 -50 23 6 25 10
22 54 -3 42 -6 47 -28 49 -14 1 -31 -1 -37 -3z m37 -38 c0 -8 -4 -18 -10 -21
-5 -3 -10 3 -10 14 0 12 5 21 10 21 6 0 10 -6 10 -14z"/>
<path d="M3453 2510 c-20 -8 -23 -17 -23 -59 0 -54 15 -66 68 -52 25 7 27 11
27 62 0 50 -2 54 -25 56 -14 1 -35 -2 -47 -7z m41 -46 c8 -20 -1 -34 -20 -34
-8 0 -14 8 -14 18 0 33 23 44 34 16z"/>
<path d="M2782 2458 c5 -15 58 -24 58 -10 0 11 -24 22 -47 22 -8 0 -13 -6 -11
-12z"/>
<path d="M2240 863 c-30 -2 -59 -8 -64 -13 -12 -12 93 -20 284 -23 192 -2 340
10 300 25 -27 10 -429 19 -520 11z"/>
<path d="M2160 440 c0 -19 5 -21 48 -18 34 2 47 7 47 18 0 11 -13 16 -47 18
-43 3 -48 1 -48 -18z"/>
<path d="M2156 352 c-12 -20 69 -48 94 -32 11 7 12 12 4 20 -16 16 -90 25 -98
12z"/>
<path d="M2753 463 c-7 -2 -13 -11 -13 -19 0 -10 14 -14 50 -14 36 0 50 4 50
14 0 22 -52 34 -87 19z"/>
<path d="M2698 368 c-48 -17 -36 -29 44 -43 61 -11 102 12 61 33 -31 17 -77
21 -105 10z"/>
<path d="M2723 4531 c-66 -17 -81 -49 -35 -78 15 -9 28 -18 30 -19 2 -1 -1
-11 -7 -22 -17 -32 -3 -50 57 -72 157 -59 250 -38 196 44 -13 21 -14 29 -4 40
6 8 10 25 8 38 -6 47 -159 90 -245 69z m176 -77 c3 -3 -5 -12 -18 -20 l-22
-16 23 -25 23 -25 -40 8 c-22 4 -49 10 -60 14 -19 7 -18 9 8 19 33 13 34 25 5
46 -22 16 -21 17 27 10 28 -4 52 -9 54 -11z"/>
</g>
</svg>
