<svg width="108" height="126" viewBox="0 0 108 126" fill="none" xmlns="http://www.w3.org/2000/svg">
<path fill-rule="evenodd" clip-rule="evenodd" d="M15.9865 16.5342C28.3385 15.0302 38.0655 10.8922 46.4866 3.55721C52.3235 -1.52679 55.5505 -1.2538 63.2486 4.9742C70.8265 11.1052 78.9836 14.4602 91.0276 16.3992C101.373 18.0642 104.977 20.4072 107.102 26.8462C108.721 31.7512 107.59 63.1862 105.443 72.9962C100.182 97.0282 85.7685 114.163 63.0496 123.394C55.0336 126.652 52.4765 126.65 44.7066 123.382C31.5655 117.856 19.5055 108.273 12.6135 97.8812C4.17155 85.1532 1.11155 72.6012 0.295549 47.3512C-0.262451 30.0972 -0.183451 28.9822 1.89155 24.6942C4.41755 19.4772 7.77455 17.5332 15.9865 16.5342ZM91.2626 24.5402C78.1295 22.9602 67.8385 18.9762 59.2656 12.1532C56.3945 9.8682 53.9195 8.0162 53.7656 8.0392C53.6125 8.0612 51.9116 9.43519 49.9866 11.0922C41.8696 18.0772 31.7855 22.3362 19.1425 24.1172C8.32555 25.6402 7.98655 26.1642 7.98655 41.3852C7.98655 64.2102 11.0125 79.2272 17.9825 90.9982C24.3976 101.831 35.0075 110.605 48.2366 116.015L53.9866 118.366L59.7366 116.032C62.8985 114.748 68.4895 111.729 72.1595 109.322C92.0885 96.2552 99.9866 77.0042 99.9866 41.4972C99.9866 26.5982 99.4335 25.5232 91.2626 24.5402ZM24.6965 50.8222C28.7895 41.7602 37.4716 34.3502 46.7206 32.0282C51.9436 30.7162 61.3265 31.6122 66.5465 33.9222C72.8445 36.7072 80.3705 44.1602 83.0696 50.2842C86.1985 57.3842 86.2826 68.5162 83.2576 75.2152C80.2556 81.8642 72.9145 89.3422 66.7005 92.0812C59.6005 95.2102 48.4685 95.2942 41.7695 92.2692C35.1205 89.2672 27.6425 81.9262 24.9035 75.7122C21.7835 68.6332 21.6905 57.4782 24.6965 50.8222ZM77.0305 58.3042C75.5195 51.5502 70.8015 45.2902 64.9775 42.3082C55.2845 37.3462 45.0346 38.8982 37.4566 46.4752C29.1075 54.8242 28.0745 67.2982 34.9465 76.7832C38.4645 81.6412 43.1345 84.6062 49.6285 86.1052C65.3445 89.7322 80.6005 74.2552 77.0305 58.3042ZM46.5305 65.1062C48.5475 66.9352 48.6715 66.8622 56.0055 59.4792C60.8425 54.6092 64.2186 51.9982 65.6766 51.9982C68.4615 51.9982 70.4335 55.3022 69.1096 57.7482C67.2695 61.1472 50.2185 76.9982 48.4036 76.9982C45.7475 76.9982 37.9866 69.0462 37.9866 66.3252C37.9866 63.8572 40.6155 61.9832 42.9866 62.7602C43.8115 63.0312 45.4065 64.0872 46.5305 65.1062Z" fill="black"/>
</svg>
