<svg width="108" height="126" viewBox="0 0 108 126" fill="none" xmlns="http://www.w3.org/2000/svg">
<path fill-rule="evenodd" clip-rule="evenodd" d="M16.0524 16.6165C28.4044 15.1125 38.1314 10.9745 46.5524 3.63948C52.3894 -1.44452 55.6164 -1.17153 63.3144 5.05647C70.8924 11.1875 79.0494 14.5425 91.0934 16.4815C101.438 18.1465 105.042 20.4895 107.167 26.9285C108.786 31.8335 107.655 63.2685 105.508 73.0785C100.247 97.1105 85.8344 114.245 63.1154 123.476C55.0994 126.734 52.5424 126.732 44.7724 123.464C31.6314 117.938 19.5714 108.355 12.6794 97.9635C4.23744 85.2355 1.17744 72.6835 0.361443 47.4335C-0.196557 30.1795 -0.117558 29.0645 1.95744 24.7765C4.48344 19.5595 7.84044 17.6155 16.0524 16.6165ZM91.3284 24.6225C78.1954 23.0425 67.9044 19.0585 59.3314 12.2355C56.4604 9.95047 53.9854 8.09848 53.8314 8.12148C53.6784 8.14348 51.9774 9.51747 50.0524 11.1745C41.9354 18.1595 31.8514 22.4185 19.2084 24.1995C8.39144 25.7225 8.05244 26.2465 8.05244 41.4675C8.05244 64.2925 11.0784 79.3095 18.0484 91.0805C24.4634 101.913 35.0734 110.687 48.3024 116.097L54.0524 118.448L59.8024 116.114C62.9644 114.83 68.5554 111.811 72.2254 109.404C92.1544 96.3375 100.052 77.0865 100.052 41.5795C100.052 26.6805 99.4994 25.6055 91.3284 24.6225ZM24.7624 50.9045C28.8554 41.8425 37.5374 34.4325 46.7864 32.1105C52.0094 30.7985 61.3924 31.6945 66.6124 34.0045C72.9104 36.7895 80.4364 44.2425 83.1354 50.3665C86.2644 57.4665 86.3484 68.5985 83.3234 75.2975C80.3214 81.9465 72.9804 89.4245 66.7664 92.1635C59.6664 95.2925 48.5344 95.3765 41.8354 92.3515C35.1864 89.3495 27.7084 82.0085 24.9694 75.7945C21.8494 68.7155 21.7564 57.5605 24.7624 50.9045ZM77.0964 58.3865C75.5854 51.6325 70.8674 45.3725 65.0434 42.3905C55.3504 37.4285 45.1004 38.9805 37.5224 46.5575C29.1734 54.9065 28.1404 67.3805 35.0124 76.8655C38.5304 81.7235 43.2004 84.6885 49.6944 86.1875C65.4104 89.8145 80.6664 74.3375 77.0964 58.3865ZM46.5964 65.1885C48.6134 67.0175 48.7374 66.9445 56.0714 59.5615C60.9084 54.6915 64.2844 52.0805 65.7424 52.0805C68.5274 52.0805 70.4994 55.3845 69.1754 57.8305C67.3354 61.2295 50.2844 77.0805 48.4694 77.0805C45.8134 77.0805 38.0524 69.1285 38.0524 66.4075C38.0524 63.9395 40.6814 62.0655 43.0524 62.8425C43.8774 63.1135 45.4724 64.1695 46.5964 65.1885Z" fill="white"/>
</svg>
