<svg width="108" height="96" viewBox="0 0 108 96" fill="none" xmlns="http://www.w3.org/2000/svg">
<path fill-rule="evenodd" clip-rule="evenodd" d="M1.0768 37.6714C0.726797 9.33636 1.21379 5.47235 5.55879 2.05435C8.10579 0.0503519 9.2858 0.000350952 53.8118 0.000350952C94.062 0.000350952 101.183 -0.142601 103.846 3.23226C104.532 4.10082 104.922 5.20238 105.506 6.59935C107.531 11.4464 107.513 58.5983 105.484 63.4543C103.452 68.3163 99.9568 70.1914 91.8458 70.7724L84.8548 71.2724L90.3768 77.0624C95.0088 81.9174 95.8998 83.4413 95.8998 86.5033C95.8998 91.6033 91.4808 96.0004 86.3548 96.0004C83.0838 96.0004 81.7138 95.0823 74.5278 88.0763L66.3998 80.1534L60.8998 81.6193C51.5518 84.1123 41.8608 81.5734 34.1558 74.6134C30.2338 71.0694 29.9968 71.0003 21.7788 70.9943C11.5998 70.9883 7.02079 69.8224 3.82579 66.4234C1.40479 63.8474 1.3988 63.7944 1.0768 37.6714ZM99.8998 35.1293C99.8998 16.4513 99.5708 9.07135 98.6998 8.20035C96.9738 6.47435 10.8258 6.47435 9.09979 8.20035C8.22879 9.07135 7.8998 16.4513 7.8998 35.1293C7.8998 57.1853 8.12379 61.0814 9.47079 62.4294C10.6378 63.5954 13.1028 64.0004 19.0388 64.0004C26.8818 64.0004 27.0208 63.9574 26.3008 61.7504C24.6288 56.6234 25.5798 47.1744 28.3348 41.5424C33.6488 30.6824 43.3648 25.3824 56.4228 26.2204C67.6408 26.9404 75.5348 32.4654 80.1338 42.8154C82.1138 47.2714 82.8498 57.5404 81.4908 61.7504C80.7788 63.9564 80.9208 64.0004 88.7608 64.0004C94.6968 64.0004 97.1618 63.5954 98.3288 62.4294C99.6758 61.0814 99.8998 57.1853 99.8998 35.1293ZM15.8258 18.9263C13.4098 16.5103 13.4098 15.4904 15.8258 13.0744C17.0598 11.8404 18.5258 11.3513 19.9098 11.7133C22.5028 12.3913 23.3238 14.1763 22.5188 17.3833C21.7158 20.5823 18.2748 21.3753 15.8258 18.9263ZM25.8998 16.0004C25.8998 13.7474 26.4958 12.7044 28.1498 12.0634C33.0848 10.1494 36.8188 16.7124 32.3998 19.5334C29.2288 21.5574 25.8998 19.7484 25.8998 16.0004ZM36.8998 16.0004C36.8998 15.4504 37.7888 14.1114 38.8758 13.0244C41.8528 10.0474 45.3998 11.6664 45.3998 16.0004C45.3998 20.3344 41.8528 21.9533 38.8758 18.9763C37.7888 17.8893 36.8998 16.5504 36.8998 16.0004ZM53.0548 16.5663C52.8498 15.5023 53.4918 14.0403 54.4818 13.3163C55.7998 12.3533 60.7388 12.0004 72.8998 12.0004C90.4898 12.0004 93.4908 12.6913 92.7448 16.5663C92.3918 18.3993 91.3558 18.5004 72.8998 18.5004C54.4438 18.5004 53.4078 18.3993 53.0548 16.5663ZM62.8998 74.0723C79.4418 65.4173 79.5948 42.9024 63.1668 34.6004C58.8838 32.4364 52.3218 31.8504 47.4578 33.1974C41.4458 34.8634 34.4988 42.3363 32.9468 48.8064C30.6098 58.5453 35.4038 69.0523 44.3248 73.7483C48.0948 75.7333 59.3498 75.9293 62.8998 74.0723ZM51.1378 55.2384L56.2688 50.0914C61.5908 44.7514 65.0478 43.7604 65.7368 47.3764C66.1568 49.5744 53.3888 63.0004 50.8798 63.0004C48.4788 63.0004 41.6508 55.5333 42.0658 53.3613C42.5788 50.6683 46.3998 50.5004 48.9578 53.0583L51.1378 55.2384ZM78.1938 82.7963C84.9228 89.4653 88.8998 90.9234 88.8998 86.7214C88.8998 85.2514 86.6628 82.2254 82.5978 78.1964L76.2958 71.9504L74.1148 74.2713L71.9348 76.5924L78.1938 82.7963Z" fill="white"/>
</svg>
