<svg width="107" height="96" viewBox="0 0 107 96" fill="none" xmlns="http://www.w3.org/2000/svg">
<path fill-rule="evenodd" clip-rule="evenodd" d="M0.0913579 37.6719C-0.258642 9.33688 0.228353 5.47287 4.57335 2.05487C7.12035 0.0508728 8.30036 0.000871937 52.8264 0.000871937C93.0765 0.000871937 100.197 -0.14208 102.861 3.23278C103.546 4.10134 103.937 5.2029 104.52 6.59987C106.545 11.4469 106.527 58.5989 104.498 63.4549C102.466 68.3169 98.9714 70.1919 90.8604 70.7729L83.8693 71.2729L89.3913 77.0629C94.0233 81.9179 94.9144 83.4419 94.9144 86.5039C94.9144 91.6039 90.4953 96.0009 85.3693 96.0009C82.0983 96.0009 80.7283 95.0829 73.5423 88.0769L65.4144 80.1539L59.9144 81.6199C50.5664 84.1129 40.8754 81.5739 33.1704 74.6139C29.2484 71.0699 29.0114 71.0009 20.7934 70.9949C10.6144 70.9889 6.03535 69.8229 2.84035 66.4239C0.419351 63.8479 0.413358 63.7949 0.0913579 37.6719ZM98.9144 35.1299C98.9144 16.4519 98.5853 9.07187 97.7143 8.20087C95.9883 6.47487 9.84035 6.47487 8.11435 8.20087C7.24335 9.07187 6.91436 16.4519 6.91436 35.1299C6.91436 57.1859 7.13836 61.0819 8.48536 62.4299C9.65235 63.5959 12.1174 64.0009 18.0534 64.0009C25.8964 64.0009 26.0354 63.9579 25.3154 61.7509C23.6434 56.6239 24.5944 47.1749 27.3494 41.5429C32.6634 30.6829 42.3794 25.3829 55.4374 26.2209C66.6554 26.9409 74.5494 32.4659 79.1484 42.8159C81.1284 47.2719 81.8644 57.5409 80.5054 61.7509C79.7934 63.9569 79.9354 64.0009 87.7753 64.0009C93.7113 64.0009 96.1763 63.5959 97.3433 62.4299C98.6903 61.0819 98.9144 57.1859 98.9144 35.1299ZM14.8404 18.9269C12.4244 16.5109 12.4244 15.4909 14.8404 13.0749C16.0744 11.8409 17.5403 11.3519 18.9244 11.7139C21.5174 12.3919 22.3384 14.1769 21.5334 17.3839C20.7304 20.5829 17.2894 21.3759 14.8404 18.9269ZM24.9144 16.0009C24.9144 13.7479 25.5104 12.7049 27.1644 12.0639C32.0994 10.1499 35.8334 16.7129 31.4144 19.5339C28.2434 21.5579 24.9144 19.7489 24.9144 16.0009ZM35.9144 16.0009C35.9144 15.4509 36.8034 14.1119 37.8904 13.0249C40.8674 10.0479 44.4144 11.6669 44.4144 16.0009C44.4144 20.3349 40.8674 21.9539 37.8904 18.9769C36.8034 17.8899 35.9144 16.5509 35.9144 16.0009ZM52.0694 16.5669C51.8644 15.5029 52.5064 14.0409 53.4964 13.3169C54.8144 12.3539 59.7534 12.0009 71.9144 12.0009C89.5044 12.0009 92.5054 12.6919 91.7594 16.5669C91.4064 18.3999 90.3704 18.5009 71.9144 18.5009C53.4584 18.5009 52.4224 18.3999 52.0694 16.5669ZM61.9144 74.0729C78.4564 65.4179 78.6094 42.9029 62.1814 34.6009C57.8984 32.4369 51.3364 31.8509 46.4724 33.1979C40.4604 34.8639 33.5134 42.3369 31.9614 48.8069C29.6244 58.5459 34.4184 69.0529 43.3394 73.7489C47.1094 75.7339 58.3644 75.9299 61.9144 74.0729ZM50.1524 55.2389L55.2834 50.0919C60.6054 44.7519 64.0624 43.7609 64.7514 47.3769C65.1714 49.5749 52.4034 63.0009 49.8944 63.0009C47.4934 63.0009 40.6654 55.5339 41.0804 53.3619C41.5934 50.6689 45.4144 50.5009 47.9724 53.0589L50.1524 55.2389ZM77.2084 82.7969C83.9374 89.4659 87.9144 90.9239 87.9144 86.7219C87.9144 85.2519 85.6774 82.2259 81.6124 78.1969L75.3104 71.9509L73.1294 74.2719L70.9494 76.5929L77.2084 82.7969Z" fill="black"/>
</svg>
