<svg width="128" height="128" viewBox="0 0 128 128" fill="none" xmlns="http://www.w3.org/2000/svg">
<path fill-rule="evenodd" clip-rule="evenodd" d="M16.9438 15.154C13.1918 11.402 12.9968 7.31297 16.3958 3.64597C21.6568 -2.03003 30.9438 1.74097 30.9438 9.55297C30.9438 12.313 30.2158 13.878 27.9438 16L24.9438 18.802V32.401V46H32.4438H39.9438V43V40H50.4438H60.9438V32.882C60.9438 26.35 60.6888 25.474 57.8478 22.238C55.3288 19.369 54.8628 18.132 55.3468 15.606C56.1058 11.643 60.2238 7.99997 63.9438 7.99997C67.6638 7.99997 71.7818 11.643 72.5408 15.606C73.0248 18.132 72.5588 19.369 70.0398 22.238C67.1988 25.474 66.9438 26.35 66.9438 32.882V40H71.4438H75.9438L75.9588 31.25C75.9678 26.438 76.3418 21.92 76.7918 21.212C77.3898 20.269 80.2658 20.001 87.5268 20.212C96.9488 20.486 97.4598 20.612 97.7638 22.75C98.0718 24.924 97.8098 25 90.0138 25H81.9438V32.5V40H84.9438H87.9438V50.5V61H95.0618C101.594 61 102.47 60.745 105.706 57.904C108.575 55.385 109.812 54.919 112.338 55.403C116.301 56.162 119.944 60.28 119.944 64C119.944 67.72 116.301 71.838 112.338 72.597C109.812 73.081 108.575 72.615 105.706 70.096C102.47 67.255 101.594 67 95.0618 67H87.9438V71.5V76H96.7438C102.255 76 105.992 76.448 106.744 77.2C107.576 78.032 107.944 83.227 107.944 94.123V109.846L110.944 112.846C114.696 116.598 114.891 120.687 111.492 124.354C106.231 130.03 96.9438 126.259 96.9438 118.447C96.9438 115.687 97.6718 114.122 99.9438 112L102.944 109.198V95.599V82H95.4438H87.9438V85V88H77.4438H66.9438V95.118C66.9438 101.65 67.1988 102.526 70.0398 105.762C72.5588 108.631 73.0248 109.868 72.5408 112.394C71.7818 116.357 67.6638 120 63.9438 120C60.2238 120 56.1058 116.357 55.3468 112.394C54.8628 109.868 55.3288 108.631 57.8478 105.762C60.6888 102.526 60.9438 101.65 60.9438 95.118V88H56.4438H51.9438V96.878C51.9438 103.265 51.5508 106.081 50.5448 106.916C49.6418 107.666 45.8298 107.975 39.7948 107.789C30.9608 107.516 30.4258 107.376 30.1238 105.25C29.8158 103.076 30.0778 103 37.8738 103H45.9438V95.5V88H42.9438H39.9438V77.5V67H32.8258C26.2938 67 25.4178 67.255 22.1818 70.096C19.3128 72.615 18.0758 73.081 15.5498 72.597C11.5868 71.838 7.94379 67.72 7.94379 64C7.94379 60.28 11.5868 56.162 15.5498 55.403C18.0758 54.919 19.3128 55.385 22.1818 57.904C25.4178 60.745 26.2938 61 32.8258 61H39.9438V56.5V52H31.5258C26.8958 52 22.3958 51.727 21.5258 51.393C20.1728 50.874 19.9438 48.426 19.9438 34.47V18.154L16.9438 15.154ZM22.4748 12C25.4208 12 26.7118 9.62997 24.9328 7.48697C22.5928 4.66697 19.9438 5.82397 19.9438 9.66697C19.9438 11.497 20.4898 12 22.4748 12ZM64.1898 19.82C65.8418 19.585 66.4438 18.833 66.4438 17C66.4438 15.167 65.8418 14.415 64.1898 14.18C61.7318 13.831 60.3368 15.975 61.3328 18.57C61.6938 19.512 62.8368 20.012 64.1898 19.82ZM118.444 31C110.571 31 107.228 22.562 112.867 16.923C116.54 13.25 120.659 13.08 124.298 16.452C129.95 21.69 126.204 31 118.444 31ZM104.564 24.835C102.207 25.289 100.686 23.016 102.159 21.241C102.765 20.511 103.976 20.052 104.852 20.221C107.097 20.653 106.864 24.392 104.564 24.835ZM117.522 25.668C119.564 26.452 122.396 23.62 121.612 21.578C121.279 20.71 119.868 20 118.475 20C116.434 20 115.944 20.49 115.944 22.531C115.944 23.924 116.654 25.335 117.522 25.668ZM82.9438 83V64V45H63.9438H44.9438V64V83H63.9438H82.9438ZM51.9438 64C51.9438 57.867 52.3768 53.967 53.1438 53.2C54.7778 51.566 73.1098 51.566 74.7438 53.2C76.3778 54.834 76.3778 73.166 74.7438 74.8C73.1098 76.434 54.7778 76.434 53.1438 74.8C52.3768 74.033 51.9438 70.133 51.9438 64ZM69.9438 70V64V58H63.9438H57.9438V64V70H63.9438H69.9438ZM17.1898 66.82C18.8418 66.585 19.4438 65.833 19.4438 64C19.4438 62.167 18.8418 61.415 17.1898 61.18C15.8368 60.988 14.6938 61.488 14.3328 62.43C13.3368 65.025 14.7318 67.169 17.1898 66.82ZM111.19 66.82C112.842 66.585 113.444 65.833 113.444 64C113.444 62.167 112.842 61.415 111.19 61.18C108.732 60.831 107.337 62.975 108.333 65.57C108.694 66.512 109.837 67.012 111.19 66.82ZM9.1668 114C1.9378 114 -1.77821 104.631 3.39879 99.455C5.09279 97.76 6.96479 97 9.44379 97C14.0878 97 17.9438 100.644 17.9438 105.031C17.9438 109.177 13.2238 114 9.1668 114ZM9.4788 108C11.7208 108 12.0338 107.625 11.7598 105.259C11.3988 102.125 8.8798 101.167 6.9898 103.444C5.1648 105.644 6.4518 108 9.4788 108ZM22.4568 107.643C20.8988 107.046 20.4308 104.846 21.6108 103.667C22.7938 102.483 25.7138 102.958 26.2778 104.427C26.9788 106.256 24.4308 108.401 22.4568 107.643ZM64.1898 113.82C65.8418 113.585 66.4438 112.833 66.4438 111C66.4438 109.167 65.8418 108.415 64.1898 108.18C62.8368 107.988 61.6938 108.488 61.3328 109.43C60.3368 112.025 61.7318 114.169 64.1898 113.82ZM103.23 120.714C105.347 122.831 107.944 121.629 107.944 118.531C107.944 116.49 107.454 116 105.413 116C102.315 116 101.113 118.597 103.23 120.714Z" fill="white"/>
</svg>
